<svg width="57" height="56" viewBox="0 0 57 56" fill="none" xmlns="http://www.w3.org/2000/svg">
<path d="M21.9849 0.379256C22.1428 0.378482 22.3006 0.377525 22.4585 0.3764C22.8847 0.373951 23.3109 0.374259 23.7371 0.375232C24.094 0.375793 24.4508 0.374991 24.8077 0.374196C25.6501 0.37234 26.4924 0.372723 27.3348 0.374556C28.2016 0.376406 29.0683 0.374674 29.9351 0.371141C30.6815 0.368214 31.4279 0.367427 32.1742 0.368354C32.6191 0.368891 33.0639 0.368661 33.5087 0.366408C33.9271 0.36439 34.3455 0.365065 34.764 0.367742C34.9168 0.368287 35.0696 0.367917 35.2224 0.366523C36.3906 0.356716 37.2136 0.562254 38.1097 1.32627C38.8468 2.12808 38.9833 3.31499 39.147 4.35117C39.1682 4.47979 39.1895 4.6084 39.2114 4.74092C39.2782 5.14745 39.3433 5.55424 39.4085 5.96104C39.4538 6.23734 39.4993 6.51363 39.5448 6.7899C39.5877 7.05249 39.6306 7.31511 39.6734 7.57774C39.6935 7.70146 39.7137 7.82519 39.7345 7.95266C39.7528 8.067 39.7711 8.18134 39.7899 8.29914C39.8061 8.39971 39.8223 8.50028 39.8389 8.60389C39.8733 8.85948 39.8733 8.85948 39.8733 9.1876C39.999 9.18126 40.1246 9.17491 40.254 9.16837C41.76 9.11501 42.9401 9.34741 44.115 10.3659C45.1738 11.4284 45.6053 12.6035 45.6116 14.0807C45.6104 14.3505 45.607 14.6203 45.6036 14.8901C45.6027 15.0796 45.6021 15.2692 45.6017 15.4587C45.6 15.9537 45.5957 16.4487 45.5909 16.9437C45.5864 17.4504 45.5844 17.9571 45.5822 18.4638C45.5775 19.4551 45.5701 20.4463 45.5608 21.4376C45.6402 21.4347 45.7196 21.4319 45.8014 21.4289C46.1633 21.4175 46.5251 21.4104 46.887 21.4034C47.0744 21.3965 47.0744 21.3965 47.2655 21.3895C48.3051 21.3744 48.3051 21.3744 48.7045 21.6995C49.0899 22.1443 49.1035 22.443 49.1001 23.018C49.0368 23.4675 48.8422 23.6484 48.514 23.9532C47.6329 24.3938 46.5459 24.0626 45.5608 24.0626C45.5608 26.6613 45.5608 29.2601 45.5608 31.9376C46.4632 31.9376 47.3655 31.9376 48.2952 31.9376C49.0429 32.5607 49.0429 32.5607 49.0907 32.9408C49.1244 33.7957 49.1244 33.7957 48.8011 34.1866C48.3957 34.563 48.2171 34.576 47.6757 34.5733C47.553 34.5729 47.4304 34.5726 47.304 34.5722C47.1111 34.5708 47.1111 34.5708 46.9144 34.5694C46.7849 34.5689 46.6555 34.5684 46.5221 34.5679C46.2017 34.5666 45.8813 34.5648 45.5608 34.5626C45.5618 34.6668 45.5628 34.771 45.5638 34.8784C45.5727 35.8647 45.5792 36.851 45.5835 37.8373C45.5858 38.3442 45.5889 38.8512 45.5938 39.3581C45.5986 39.8482 45.6012 40.3382 45.6023 40.8283C45.6031 41.0144 45.6047 41.2006 45.6071 41.3867C45.6272 43.0307 45.3648 44.2221 44.2483 45.5001C43.4918 46.2187 42.431 46.8309 41.3687 46.8233C41.2813 46.8229 41.1939 46.8226 41.1038 46.8222C41.0136 46.8213 40.9233 46.8204 40.8304 46.8194C40.7384 46.8189 40.6465 46.8184 40.5518 46.8179C40.3256 46.8167 40.0995 46.8147 39.8733 46.8126C39.8585 46.9276 39.8437 47.0427 39.8285 47.1612C39.6529 48.475 39.4412 49.7832 39.2193 51.0898C39.1861 51.2862 39.1534 51.4827 39.1212 51.6793C39.0749 51.9607 39.0268 52.2417 38.9783 52.5227C38.9648 52.6066 38.9514 52.6905 38.9375 52.777C38.8056 53.5196 38.5364 54.228 37.9935 54.7696C37.9378 54.8277 37.8821 54.8858 37.8247 54.9457C36.9366 55.5877 36.0813 55.6265 35.0117 55.6209C34.8539 55.6217 34.696 55.6227 34.5382 55.6238C34.112 55.6262 33.6858 55.6259 33.2596 55.625C32.9027 55.6244 32.5458 55.6252 32.189 55.626C31.3466 55.6279 30.5042 55.6275 29.6619 55.6256C28.7951 55.6238 27.9284 55.6255 27.0616 55.6291C26.3152 55.632 25.5688 55.6328 24.8224 55.6318C24.3776 55.6313 23.9328 55.6315 23.488 55.6338C23.0695 55.6358 22.6511 55.6351 22.2327 55.6325C22.0799 55.6319 21.927 55.6323 21.7742 55.6337C20.6061 55.6435 19.7831 55.4379 18.887 54.6739C18.1499 53.8721 18.0134 52.6852 17.8497 51.649C17.8284 51.5204 17.8072 51.3918 17.7853 51.2593C17.7185 50.8527 17.6534 50.446 17.5882 50.0392C17.5429 49.7629 17.4974 49.4866 17.4519 49.2103C17.4089 48.9477 17.3661 48.6851 17.3233 48.4225C17.3031 48.2987 17.283 48.175 17.2622 48.0475C17.2439 47.9332 17.2256 47.8189 17.2068 47.7011C17.1906 47.6005 17.1744 47.4999 17.1578 47.3963C17.1233 47.1407 17.1233 47.1407 17.1233 46.8126C16.9952 46.8177 16.867 46.8227 16.735 46.828C15.1121 46.8736 14.0046 46.5976 12.7483 45.5001C12.0077 44.7203 11.4239 43.661 11.4209 42.5725C11.4203 42.4674 11.4197 42.3622 11.4192 42.2539C11.4191 42.1387 11.4191 42.0235 11.419 41.9048C11.4185 41.7821 11.418 41.6595 11.4176 41.5331C11.4161 41.1206 11.4154 40.7081 11.4147 40.2956C11.4139 40.0005 11.413 39.7053 11.412 39.4101C11.4094 38.5231 11.4078 37.6361 11.4063 36.7491C11.4059 36.4984 11.4055 36.2478 11.4051 35.9971C11.4023 34.4393 11.3999 32.8815 11.3985 31.3237C11.3982 30.963 11.3979 30.6022 11.3975 30.2415C11.3975 30.1518 11.3974 30.0621 11.3973 29.9698C11.3959 28.5187 11.3923 27.0677 11.3877 25.6166C11.3831 24.1257 11.3805 22.6347 11.3799 21.1438C11.3796 20.3071 11.3783 19.4705 11.3747 18.6339C11.3716 17.9211 11.3704 17.2083 11.3716 16.4954C11.3722 16.1322 11.3716 15.769 11.3692 15.4057C11.3576 13.5734 11.355 12.0859 12.6142 10.6334C13.5568 9.69413 14.6092 9.17327 15.9409 9.15852C16.3355 9.16103 16.729 9.17198 17.1233 9.1876C17.1455 9.01503 17.1455 9.01503 17.1682 8.83897C17.3437 7.52519 17.5555 6.21704 17.7774 4.91041C17.8106 4.714 17.8433 4.5175 17.8755 4.32092C17.9218 4.03951 17.9699 3.75848 18.0184 3.47746C18.0319 3.39355 18.0453 3.30965 18.0592 3.2232C18.1911 2.48064 18.4602 1.77222 19.0032 1.23057C19.0589 1.17248 19.1146 1.11439 19.172 1.05454C20.0601 0.412543 20.9154 0.373716 21.9849 0.379256ZM20.9515 3.17198C20.5641 4.12475 20.4796 5.26277 20.3182 6.27645C20.2744 6.55085 20.2294 6.82503 20.1843 7.09922C20.1559 7.27552 20.1274 7.45183 20.0991 7.62815C20.0858 7.70917 20.0725 7.79018 20.0587 7.87366C19.9877 8.32471 19.9671 8.72573 19.9671 9.1876C25.5977 9.1876 31.2283 9.1876 37.0296 9.1876C36.9646 8.40743 36.9 7.65293 36.7737 6.88474C36.7598 6.79833 36.7459 6.71192 36.7316 6.62289C36.7025 6.44293 36.6732 6.26301 36.6436 6.08312C36.5986 5.80899 36.5548 5.53469 36.5111 5.26035C36.4825 5.08403 36.4538 4.90772 36.425 4.73142C36.4121 4.65041 36.3993 4.56939 36.386 4.48592C36.3104 4.0315 36.2277 3.59627 36.0452 3.17198C35.7099 3.0602 35.4829 3.04885 35.1317 3.04871C34.9495 3.04825 34.9495 3.04825 34.7637 3.04778C34.6304 3.048 34.4971 3.04822 34.3597 3.04845C34.2194 3.04826 34.079 3.04807 33.9345 3.04787C33.5494 3.04737 33.1643 3.04756 32.7793 3.04791C32.3765 3.04819 31.9738 3.04793 31.5711 3.04776C30.8947 3.04756 30.2183 3.04782 29.542 3.04834C28.7597 3.04894 27.9775 3.04874 27.1952 3.04814C26.5239 3.04765 25.8526 3.04758 25.1813 3.04786C24.7802 3.04803 24.3791 3.04805 23.978 3.04769C23.531 3.04732 23.084 3.04784 22.6369 3.04845C22.5036 3.04823 22.3703 3.04801 22.233 3.04778C22.1115 3.04809 21.9901 3.04839 21.8649 3.04871C21.7063 3.04877 21.7063 3.04877 21.5445 3.04884C21.264 3.05161 21.264 3.05161 20.9515 3.17198ZM14.7171 12.4689C14.0568 13.304 14.0446 14.1066 14.0462 15.1361C14.046 15.2504 14.0457 15.3647 14.0455 15.4824C14.0448 15.8653 14.0449 16.2482 14.045 16.631C14.0446 16.9056 14.0443 17.1801 14.0438 17.4546C14.043 18.1229 14.0426 18.7912 14.0426 19.4595C14.0425 20.0028 14.0423 20.5461 14.0419 21.0894C14.041 22.6305 14.0405 24.1717 14.0406 25.7128C14.0406 25.7958 14.0406 25.8789 14.0406 25.9644C14.0406 26.0476 14.0406 26.1307 14.0406 26.2164C14.0406 27.5638 14.0396 28.9112 14.038 30.2587C14.0365 31.643 14.0357 33.0272 14.0358 34.4115C14.0358 35.1884 14.0355 35.9653 14.0344 36.7422C14.0333 37.4727 14.0333 38.2033 14.0341 38.9339C14.0342 39.202 14.034 39.47 14.0333 39.7381C14.0324 40.1042 14.033 40.4702 14.0338 40.8363C14.0332 40.9423 14.0327 41.0482 14.0321 41.1574C14.0366 42.0422 14.1249 42.8301 14.7171 43.5313C15.5127 44.1603 16.2688 44.204 17.2515 44.2022C17.3515 44.2025 17.4515 44.2027 17.5545 44.203C17.889 44.2037 18.2235 44.2036 18.558 44.2035C18.798 44.2038 19.0381 44.2042 19.2781 44.2046C19.9299 44.2056 20.5816 44.2058 21.2333 44.2059C21.6405 44.206 22.0478 44.2062 22.455 44.2065C23.8024 44.2075 25.1499 44.208 26.4974 44.2079C26.6062 44.2079 26.6062 44.2079 26.7173 44.2079C26.79 44.2079 26.8626 44.2079 26.9375 44.2079C28.1152 44.2078 29.2929 44.2089 30.4706 44.2104C31.6809 44.212 32.8911 44.2127 34.1014 44.2126C34.7805 44.2126 35.4595 44.2129 36.1386 44.2141C36.7772 44.2151 37.4159 44.2151 38.0545 44.2143C38.2887 44.2142 38.523 44.2145 38.7572 44.2151C39.0773 44.216 39.3973 44.2155 39.7174 44.2146C39.8097 44.2152 39.9021 44.2158 39.9972 44.2163C40.8465 44.2114 41.6095 44.0972 42.2796 43.5313C42.9399 42.6962 42.9521 41.8936 42.9505 40.8641C42.9507 40.7498 42.951 40.6355 42.9512 40.5178C42.9519 40.1349 42.9518 39.752 42.9517 39.3692C42.9521 39.0946 42.9524 38.8201 42.9528 38.5456C42.9537 37.8773 42.954 37.209 42.9541 36.5407C42.9542 35.9974 42.9544 35.4541 42.9547 34.9108C42.9557 33.3697 42.9562 31.8285 42.9561 30.2874C42.9561 30.2044 42.9561 30.1213 42.9561 30.0358C42.9561 29.9526 42.9561 29.8695 42.9561 29.7838C42.956 28.4364 42.9571 27.089 42.9586 25.7415C42.9602 24.3572 42.961 22.9729 42.9609 21.5887C42.9608 20.8118 42.9611 20.0349 42.9623 19.258C42.9634 18.5275 42.9634 17.7969 42.9626 17.0663C42.9625 16.7982 42.9627 16.5302 42.9634 16.2621C42.9642 15.896 42.9637 15.53 42.9629 15.1639C42.9637 15.005 42.9637 15.005 42.9646 14.8428C42.9601 13.958 42.8718 13.1701 42.2796 12.4689C41.484 11.8399 40.7279 11.7962 39.7452 11.798C39.6452 11.7977 39.5452 11.7975 39.4422 11.7972C39.1077 11.7965 38.7732 11.7966 38.4387 11.7967C38.1986 11.7964 37.9586 11.796 37.7185 11.7956C37.0668 11.7946 36.4151 11.7944 35.7633 11.7943C35.3561 11.7942 34.9489 11.794 34.5417 11.7937C33.1942 11.7927 31.8468 11.7922 30.4993 11.7923C30.3904 11.7923 30.3904 11.7923 30.2794 11.7923C30.1704 11.7923 30.1704 11.7923 30.0592 11.7923C28.8815 11.7924 27.7038 11.7913 26.5261 11.7898C25.3158 11.7882 24.1056 11.7875 22.8953 11.7876C22.2162 11.7876 21.5372 11.7873 20.8581 11.7861C20.2194 11.7851 19.5808 11.7851 18.9421 11.7859C18.7079 11.786 18.4737 11.7857 18.2395 11.7851C17.9194 11.7842 17.5994 11.7847 17.2793 11.7856C17.1869 11.785 17.0946 11.7844 16.9995 11.7839C16.1501 11.7888 15.3871 11.903 14.7171 12.4689ZM19.9671 46.8126C20.0321 47.5928 20.0967 48.3473 20.223 49.1155C20.2438 49.2451 20.2438 49.2451 20.2651 49.3773C20.2942 49.5573 20.3235 49.7372 20.3531 49.9171C20.398 50.1912 20.4418 50.4655 20.4856 50.7398C20.5142 50.9162 20.5429 51.0925 20.5716 51.2688C20.5845 51.3498 20.5974 51.4308 20.6107 51.5143C20.6863 51.9687 20.7689 52.4039 20.9515 52.8282C21.2868 52.94 21.5138 52.9513 21.8649 52.9515C22.0471 52.9519 22.0471 52.9519 22.233 52.9524C22.3663 52.9522 22.4996 52.952 22.6369 52.9517C22.7773 52.9519 22.9176 52.9521 23.0622 52.9523C23.4473 52.9528 23.8323 52.9526 24.2174 52.9523C24.6201 52.952 25.0229 52.9523 25.4256 52.9524C26.102 52.9526 26.7783 52.9524 27.4547 52.9519C28.2369 52.9513 29.0192 52.9515 29.8015 52.9521C30.4728 52.9526 31.1441 52.9526 31.8154 52.9523C32.2165 52.9522 32.6176 52.9521 33.0187 52.9525C33.4657 52.9529 33.9127 52.9524 34.3597 52.9517C34.493 52.952 34.6263 52.9522 34.7637 52.9524C34.8851 52.9521 35.0066 52.9518 35.1317 52.9515C35.2375 52.9514 35.3432 52.9514 35.4522 52.9514C35.7327 52.9486 35.7327 52.9486 36.0452 52.8282C36.4326 51.8754 36.517 50.7374 36.6785 49.7237C36.7223 49.4493 36.7672 49.1752 36.8123 48.901C36.8408 48.7247 36.8692 48.5484 36.8976 48.372C36.9109 48.291 36.9242 48.21 36.9379 48.1265C37.009 47.6755 37.0296 47.2745 37.0296 46.8126C31.399 46.8126 25.7683 46.8126 19.9671 46.8126Z" fill="#77C49A"/>
<path d="M32.151 17.9584C32.274 17.9675 32.274 17.9675 32.3996 17.9768C32.8388 18.0972 33.1292 18.3555 33.355 18.7475C33.3946 18.8468 33.4342 18.9461 33.475 19.0483C33.5224 19.1649 33.5698 19.2815 33.6187 19.4016C33.669 19.5299 33.7193 19.6582 33.7711 19.7905C33.8256 19.9262 33.8802 20.0619 33.935 20.1975C34.0586 20.5044 34.1811 20.8117 34.3029 21.1193C34.5466 21.7341 34.7931 22.3478 35.0396 22.9615C35.5231 24.1665 36.0045 25.3723 36.4849 26.5785C36.6189 26.5792 36.6189 26.5792 36.7557 26.5799C37.1622 26.5835 37.5687 26.5912 37.9752 26.5991C38.186 26.6 38.186 26.6 38.4011 26.601C39.5676 26.6282 39.5676 26.6282 39.967 26.9532C40.3409 27.398 40.3557 27.6997 40.3524 28.2683C40.2891 28.7178 40.0944 28.8988 39.7662 29.2035C39.1862 29.4935 38.2504 29.3473 37.6043 29.3512C37.3875 29.353 37.1707 29.356 36.9538 29.3602C36.6409 29.3662 36.328 29.3686 36.015 29.3702C35.9186 29.3727 35.8222 29.3751 35.7228 29.3777C35.2718 29.3761 34.9451 29.3575 34.5793 29.0778C34.2875 28.7551 34.1366 28.4985 33.977 28.0957C33.9243 27.9654 33.8716 27.8351 33.8173 27.7009C33.7631 27.5615 33.709 27.4221 33.6549 27.2826C33.598 27.14 33.541 26.9975 33.4839 26.855C33.3698 26.57 33.2568 26.2846 33.1446 25.9988C33.001 25.6348 32.8543 25.2722 32.7055 24.9102C32.6255 24.7143 32.5454 24.5185 32.4654 24.3227C32.4288 24.2335 32.3921 24.1443 32.3544 24.0524C32.1099 23.4444 32.1099 23.4444 32.1099 23.0785C32.0378 23.0785 31.9656 23.0785 31.8912 23.0785C31.877 23.1585 31.8628 23.2384 31.8481 23.3207C31.7861 23.6058 31.7038 23.8552 31.596 24.1257C31.5383 24.2714 31.5383 24.2714 31.4795 24.42C31.4373 24.5252 31.395 24.6305 31.3516 24.7389C31.3071 24.8508 31.2626 24.9628 31.2168 25.0781C31.0693 25.4489 30.9212 25.8193 30.7731 26.1898C30.6699 26.4488 30.5667 26.7079 30.4635 26.967C30.2467 27.5112 30.0296 28.0554 29.8122 28.5994C29.5632 29.2228 29.3145 29.8464 29.0662 30.47C28.8255 31.0745 28.5846 31.6788 28.3435 32.2832C28.2419 32.5378 28.1404 32.7926 28.0389 33.0473C27.7629 33.7397 27.4852 34.4314 27.2055 35.1224C27.0812 35.4317 26.9596 35.742 26.8382 36.0526C26.7632 36.2403 26.688 36.4281 26.6128 36.6158C26.5808 36.6997 26.5489 36.7836 26.5159 36.8701C26.2892 37.4271 26.044 37.719 25.5474 38.0629C25.2672 38.1356 25.2672 38.1356 25.0006 38.1313C24.9126 38.1327 24.8246 38.1341 24.734 38.1356C24.3206 38.0284 24.0624 37.8416 23.7974 37.516C23.5672 37.0937 23.3969 36.6516 23.2232 36.2035C23.1403 35.9966 23.0574 35.7896 22.9744 35.5826C22.8811 35.3486 22.7887 35.1142 22.6964 34.8798C22.4544 34.2653 22.2081 33.6526 21.962 33.0398C21.4782 31.8347 20.9967 30.6287 20.5162 29.4223C20.3822 29.4216 20.3822 29.4216 20.2455 29.4209C19.8389 29.4173 19.4325 29.4096 19.026 29.4018C18.8854 29.4012 18.7448 29.4005 18.6 29.3999C17.4336 29.3727 17.4336 29.3727 17.0341 29.0476C16.6602 28.6028 16.6455 28.3011 16.6488 27.7325C16.7121 27.2831 16.9067 27.1021 17.2349 26.7973C17.8149 26.5073 18.7507 26.6536 19.3968 26.6496C19.6136 26.6478 19.8305 26.6448 20.0473 26.6407C20.3603 26.6347 20.6731 26.6323 20.9862 26.6307C21.0826 26.6282 21.179 26.6257 21.2783 26.6232C21.7294 26.6247 22.056 26.6434 22.4219 26.923C22.7136 27.2458 22.8646 27.5023 23.0241 27.9051C23.1032 28.1006 23.1032 28.1006 23.1838 28.3C23.238 28.4394 23.2922 28.5788 23.3463 28.7182C23.4031 28.8608 23.4601 29.0033 23.5173 29.1458C23.6313 29.4308 23.7444 29.7162 23.8565 30.002C24.0002 30.3661 24.1469 30.7287 24.2956 31.0907C24.3757 31.2865 24.4557 31.4823 24.5357 31.6782C24.5724 31.7673 24.609 31.8565 24.6468 31.9484C24.8912 32.5565 24.8912 32.5565 24.8912 32.9223C24.9634 32.9223 25.0356 32.9223 25.1099 32.9223C25.1242 32.8424 25.1384 32.7625 25.153 32.6801C25.215 32.3951 25.2973 32.1457 25.4051 31.8752C25.4436 31.7781 25.4821 31.6809 25.5217 31.5808C25.5639 31.4756 25.6061 31.3704 25.6496 31.262C25.6941 31.15 25.7385 31.0381 25.7844 30.9227C25.9318 30.552 26.0799 30.1815 26.228 29.8111C26.3313 29.552 26.4345 29.2929 26.5376 29.0339C26.7544 28.4896 26.9715 27.9455 27.1889 27.4015C27.438 26.7781 27.6866 26.1545 27.935 25.5308C28.1757 24.9263 28.4166 24.322 28.6576 23.7177C28.7592 23.463 28.8608 23.2083 28.9623 22.9536C29.2382 22.2613 29.5156 21.5697 29.7952 20.8789C29.9204 20.568 30.0436 20.2563 30.1667 19.9444C30.2428 19.7557 30.3189 19.5669 30.3952 19.3782C30.4281 19.2934 30.4609 19.2085 30.4948 19.1211C30.6958 18.6307 30.8815 18.3396 31.3443 18.0473C31.6649 17.9404 31.8227 17.9287 32.151 17.9584Z" fill="#77C49A"/>
</svg>
