<svg width="56" height="56" viewBox="0 0 56 56" fill="none" xmlns="http://www.w3.org/2000/svg">
<path d="M12.5691 7.39197C12.687 7.39104 12.8048 7.39012 12.9262 7.38916C13.3145 7.38661 13.7028 7.38649 14.0911 7.38663C14.362 7.38585 14.6329 7.38501 14.9039 7.38411C15.4714 7.38264 16.039 7.38246 16.6065 7.3831C17.3321 7.38375 18.0577 7.3804 18.7833 7.37598C19.3428 7.37315 19.9023 7.37284 20.4619 7.37324C20.7293 7.37305 20.9967 7.372 21.2642 7.37005C21.639 7.36761 22.0137 7.36869 22.3885 7.37061C22.5527 7.36843 22.5527 7.36843 22.7201 7.36621C23.5859 7.37647 24.309 7.60604 24.9543 8.20241C25.7125 9.00345 25.8636 9.73909 25.8638 10.8102C25.8647 10.923 25.8655 11.0359 25.8664 11.1521C25.8675 11.3901 25.8679 11.6281 25.8674 11.8661C25.8673 12.2277 25.8718 12.5889 25.8767 12.9504C25.8772 13.1826 25.8775 13.4149 25.8775 13.6471C25.8793 13.7539 25.8811 13.8606 25.8829 13.9707C25.8742 14.8561 25.6166 15.5689 25.0286 16.2396C24.9557 16.297 24.8828 16.3544 24.8077 16.4135C24.7339 16.4734 24.6602 16.5333 24.5842 16.5951C24.3907 16.7348 24.3907 16.7348 24.1719 16.8441C24.1358 18.3601 24.0998 19.876 24.0626 21.4379C26.6613 21.4379 29.2601 21.4379 31.9376 21.4379C31.9376 20.6935 31.9376 19.949 31.9376 19.182C31.9398 18.9482 31.9421 18.7143 31.9444 18.4734C31.9425 18.2866 31.9402 18.0999 31.9376 17.9131C31.9397 17.8173 31.9418 17.7215 31.944 17.6227C31.9346 17.2086 31.9284 16.9487 31.634 16.6414C31.4026 16.4643 31.4026 16.4643 31.1627 16.32C30.8906 16.1484 30.7447 15.9471 30.5772 15.6752C30.5255 15.5936 30.4737 15.5119 30.4204 15.4278C30.2226 15.0685 30.1728 14.7766 30.1665 14.3736C30.1638 14.2212 30.1638 14.2212 30.1611 14.0658C30.1563 13.5998 30.1518 13.1338 30.1493 12.6677C30.1475 12.4228 30.1445 12.1778 30.1403 11.9329C30.1343 11.5783 30.1319 11.2238 30.1303 10.8691C30.1278 10.7609 30.1254 10.6528 30.1228 10.5413C30.1254 9.66852 30.3508 8.94668 30.9521 8.29618C31.7584 7.53272 32.492 7.38883 33.5691 7.39197C33.687 7.39104 33.8048 7.39012 33.9262 7.38916C34.3145 7.38661 34.7028 7.38649 35.0911 7.38663C35.362 7.38585 35.6329 7.38501 35.9039 7.38411C36.4714 7.38264 37.039 7.38246 37.6065 7.3831C38.3321 7.38375 39.0577 7.3804 39.7833 7.37598C40.3428 7.37315 40.9023 7.37284 41.4619 7.37324C41.7293 7.37305 41.9967 7.372 42.2642 7.37005C42.639 7.36761 43.0137 7.36869 43.3885 7.37061C43.5527 7.36843 43.5527 7.36843 43.7201 7.36621C44.5859 7.37647 45.309 7.60604 45.9543 8.20241C46.7125 9.00345 46.8636 9.73909 46.8638 10.8102C46.8647 10.923 46.8655 11.0359 46.8664 11.1521C46.8675 11.3901 46.8679 11.6281 46.8674 11.8661C46.8673 12.2277 46.8718 12.5889 46.8767 12.9504C46.8772 13.1826 46.8775 13.4149 46.8775 13.6471C46.8793 13.7539 46.8811 13.8606 46.8829 13.9707C46.8742 14.8561 46.6166 15.5689 46.0286 16.2396C45.9557 16.297 45.8828 16.3544 45.8077 16.4135C45.7339 16.4734 45.6602 16.5333 45.5842 16.5951C45.3907 16.7348 45.3907 16.7348 45.1719 16.8441C45.1359 18.3601 45.0998 19.876 45.0626 21.4379C46.5063 21.4379 47.9501 21.4379 49.4376 21.4379C49.4312 21.1218 49.4249 20.8057 49.4183 20.48C49.4141 20.1727 49.4108 19.8654 49.4075 19.558C49.4048 19.345 49.4011 19.132 49.3963 18.919C49.3897 18.6121 49.3866 18.3055 49.3842 17.9986C49.3813 17.9039 49.3785 17.8092 49.3756 17.7116C49.3754 17.2427 49.3998 16.9389 49.7007 16.5669C50.1375 16.1518 50.4322 16.1452 51.018 16.1486C51.4674 16.2119 51.6484 16.4066 51.9532 16.7348C52.1411 17.1106 52.0757 17.5424 52.0733 17.9558C52.073 18.1047 52.073 18.1047 52.0728 18.2565C52.0722 18.5741 52.0708 18.8918 52.0694 19.2094C52.0689 19.4244 52.0684 19.6395 52.0679 19.8545C52.0667 20.3823 52.0648 20.9101 52.0626 21.4379C52.142 21.435 52.2214 21.4322 52.3032 21.4292C52.665 21.4178 53.0268 21.4107 53.3887 21.4037C53.5137 21.3991 53.6386 21.3946 53.7673 21.3898C54.8068 21.3747 54.8068 21.3747 55.2062 21.6998C55.5917 22.1446 55.6052 22.4433 55.6019 23.0183C55.5386 23.4678 55.3439 23.6487 55.0157 23.9535C54.1346 24.3941 53.0476 24.0629 52.0626 24.0629C52.0626 29.5491 52.0626 35.0354 52.0626 40.6879C52.4957 40.6879 52.9288 40.6879 53.3751 40.6879C54.3219 41.0443 54.9316 41.5354 55.4054 42.434C55.6274 42.9646 55.6137 43.4923 55.6138 44.0602C55.6147 44.173 55.6155 44.2859 55.6164 44.4021C55.6175 44.6401 55.6179 44.8781 55.6174 45.1161C55.6173 45.4777 55.6218 45.8389 55.6267 46.2004C55.6272 46.4326 55.6275 46.6649 55.6275 46.8971C55.6293 47.0039 55.6311 47.1106 55.6329 47.2207C55.6244 48.0866 55.3943 48.8094 54.7981 49.4547C54.1076 50.1081 53.4361 50.3632 52.4913 50.3548C52.4051 50.3553 52.3189 50.3559 52.23 50.3564C51.9412 50.3579 51.6525 50.3569 51.3637 50.356C51.1545 50.3566 50.9453 50.3572 50.736 50.3581C50.1613 50.3599 49.5865 50.3596 49.0117 50.359C48.3917 50.3587 47.7718 50.3603 47.1518 50.3616C45.9373 50.3639 44.7227 50.3644 43.5082 50.3642C42.5211 50.3641 41.5339 50.3645 40.5468 50.3653C40.2626 50.3656 39.9783 50.3658 39.6941 50.366C39.4819 50.3662 39.4819 50.3662 39.2654 50.3664C37.3496 50.3678 35.4338 50.3687 33.5179 50.3682C33.443 50.3682 33.3681 50.3681 33.2909 50.3681C32.9112 50.368 32.5315 50.3679 32.1518 50.3678C32.0764 50.3678 32.001 50.3678 31.9233 50.3678C31.7708 50.3677 31.6183 50.3677 31.4659 50.3676C29.0933 50.367 26.7208 50.3687 24.3483 50.3722C21.6823 50.3761 19.0163 50.3782 16.3503 50.3777C14.9388 50.3775 13.5274 50.378 12.116 50.3807C10.9144 50.383 9.71277 50.3834 8.51115 50.3814C7.89807 50.3804 7.28502 50.3802 6.67194 50.3825C6.11053 50.3845 5.54918 50.3841 4.98778 50.3816C4.78485 50.3811 4.58193 50.3816 4.37901 50.3831C3.21642 50.391 2.19528 50.388 1.29901 49.5484C0.534509 48.7537 0.386513 48.0093 0.386293 46.9406C0.385461 46.8278 0.384628 46.7149 0.38377 46.5987C0.382592 46.3607 0.382275 46.1227 0.382769 45.8847C0.382875 45.5231 0.378322 45.1619 0.373476 44.8004C0.372906 44.5681 0.372612 44.3359 0.372622 44.1037C0.370828 43.9969 0.369035 43.8902 0.367188 43.7801C0.375781 42.9142 0.606227 42.1932 1.20048 41.5466C2.08458 40.7144 2.67133 40.6879 3.93756 40.6879C3.93756 35.2016 3.93756 29.7154 3.93756 24.0629C3.03522 24.0629 2.13288 24.0629 1.20319 24.0629C0.455511 23.4398 0.455511 23.4398 0.407656 23.0597C0.373975 22.2048 0.373975 22.2048 0.697329 21.8139C1.10265 21.4375 1.28125 21.4245 1.82269 21.4272C2.00669 21.4277 2.00669 21.4277 2.1944 21.4283C2.32298 21.4292 2.45157 21.4301 2.58405 21.4311C2.71348 21.4316 2.84291 21.432 2.97626 21.4326C3.2967 21.4338 3.61713 21.4357 3.93756 21.4379C3.9347 21.3055 3.93184 21.1731 3.92888 21.0367C3.91896 20.5438 3.9127 20.0509 3.90752 19.558C3.90478 19.345 3.90105 19.132 3.89631 18.919C3.88965 18.6121 3.88657 18.3055 3.88416 17.9986C3.88134 17.9039 3.87851 17.8092 3.8756 17.7116C3.87539 17.2427 3.89976 16.9389 4.20067 16.5669C4.63748 16.1518 4.93221 16.1452 5.51795 16.1486C5.96742 16.2119 6.14841 16.4066 6.45319 16.7348C6.6411 17.1106 6.57565 17.5424 6.57324 17.9558C6.57309 18.0551 6.57294 18.1543 6.57278 18.2565C6.57216 18.5741 6.57079 18.8918 6.5694 19.2094C6.56885 19.4244 6.56835 19.6395 6.5679 19.8545C6.56679 20.3823 6.56465 20.9101 6.56256 21.4379C8.00631 21.4379 9.45006 21.4379 10.9376 21.4379C10.942 20.7953 10.9439 20.1538 10.9389 19.5113C10.938 19.293 10.9387 19.0746 10.9409 18.8563C10.9439 18.5418 10.9413 18.2277 10.9376 17.9131C10.9397 17.816 10.9418 17.7189 10.944 17.6189C10.9345 17.2062 10.9273 16.9477 10.634 16.6414C10.4026 16.4643 10.4026 16.4643 10.1627 16.32C9.89061 16.1484 9.74474 15.9471 9.57721 15.6752C9.52547 15.5936 9.47373 15.5119 9.42041 15.4278C9.22259 15.0685 9.17282 14.7766 9.16647 14.3736C9.16471 14.272 9.16296 14.1705 9.16114 14.0658C9.15626 13.5998 9.15179 13.1338 9.14927 12.6677C9.14747 12.4228 9.14449 12.1778 9.1403 11.9329C9.13427 11.5783 9.13191 11.2238 9.13031 10.8691C9.12783 10.7609 9.12535 10.6528 9.1228 10.5413C9.12542 9.66852 9.35077 8.94668 9.95211 8.29618C10.7584 7.53272 11.492 7.38883 12.5691 7.39197ZM11.9719 10.2624C11.7402 10.6084 11.7559 10.8798 11.7545 11.2934C11.754 11.3694 11.7536 11.4454 11.7532 11.5238C11.7529 11.6841 11.7537 11.8444 11.7555 12.0047C11.7579 12.2497 11.7555 12.4942 11.7528 12.7392C11.753 12.8953 11.7536 13.0513 11.7545 13.2074C11.755 13.349 11.7554 13.4905 11.756 13.6364C11.7857 13.9966 11.7857 13.9966 11.9719 14.2384C12.3871 14.5362 12.7574 14.4991 13.2567 14.4945C13.3584 14.4953 13.4602 14.496 13.5651 14.4968C13.9015 14.4988 14.2378 14.4975 14.5743 14.496C14.808 14.4963 15.0418 14.4967 15.2755 14.4973C15.7654 14.4979 16.2552 14.497 16.7451 14.4949C17.3733 14.4924 18.0015 14.4939 18.6297 14.4965C19.1124 14.4981 19.595 14.4976 20.0777 14.4964C20.3093 14.4962 20.541 14.4965 20.7726 14.4975C21.0963 14.4986 21.4198 14.4969 21.7435 14.4945C21.8394 14.4954 21.9353 14.4963 22.0341 14.4972C22.5673 14.4903 22.5673 14.4903 23.0282 14.2384C23.2599 13.8924 23.2442 13.621 23.2457 13.2074C23.2461 13.1314 23.2465 13.0554 23.2469 12.977C23.2472 12.8167 23.2464 12.6564 23.2446 12.4961C23.2423 12.2511 23.2446 12.0066 23.2474 11.7616C23.2471 11.6055 23.2465 11.4495 23.2457 11.2934C23.2452 11.1518 23.2447 11.0103 23.2442 10.8644C23.2144 10.5042 23.2144 10.5042 23.0282 10.2624C22.6131 9.96461 22.2428 10.0017 21.7435 10.0063C21.6417 10.0055 21.5399 10.0048 21.4351 10.004C21.0986 10.002 20.7623 10.0033 20.4258 10.0048C20.1921 10.0045 19.9584 10.0041 19.7246 10.0035C19.2347 10.0029 18.7449 10.0038 18.255 10.0059C17.6268 10.0084 16.9986 10.0069 16.3704 10.0043C15.8878 10.0027 15.4051 10.0032 14.9224 10.0044C14.6908 10.0046 14.4592 10.0043 14.2275 10.0033C13.9038 10.0022 13.5803 10.0039 13.2567 10.0063C13.1607 10.0054 13.0648 10.0045 12.966 10.0036C12.4328 10.0105 12.4328 10.0105 11.9719 10.2624ZM32.9719 10.2624C32.7402 10.6084 32.7559 10.8798 32.7545 11.2934C32.754 11.3694 32.7536 11.4454 32.7532 11.5238C32.7529 11.6841 32.7537 11.8444 32.7555 12.0047C32.7579 12.2497 32.7556 12.4942 32.7528 12.7392C32.753 12.8953 32.7536 13.0513 32.7545 13.2074C32.755 13.349 32.7554 13.4905 32.756 13.6364C32.7857 13.9966 32.7857 13.9966 32.9719 14.2384C33.3871 14.5362 33.7574 14.4991 34.2567 14.4945C34.3584 14.4953 34.4602 14.496 34.5651 14.4968C34.9015 14.4988 35.2378 14.4975 35.5743 14.496C35.808 14.4963 36.0418 14.4967 36.2755 14.4973C36.7654 14.4979 37.2552 14.497 37.7451 14.4949C38.3733 14.4924 39.0015 14.4939 39.6297 14.4965C40.1124 14.4981 40.595 14.4976 41.0777 14.4964C41.3093 14.4962 41.541 14.4965 41.7726 14.4975C42.0963 14.4986 42.4198 14.4969 42.7435 14.4945C42.8394 14.4954 42.9353 14.4963 43.0342 14.4972C43.5673 14.4903 43.5673 14.4903 44.0282 14.2384C44.2599 13.8924 44.2442 13.621 44.2457 13.2074C44.2461 13.1314 44.2465 13.0554 44.2469 12.977C44.2472 12.8167 44.2464 12.6564 44.2446 12.4961C44.2423 12.2511 44.2446 12.0066 44.2474 11.7616C44.2471 11.6055 44.2465 11.4495 44.2457 11.2934C44.2452 11.1518 44.2447 11.0103 44.2442 10.8644C44.2144 10.5042 44.2144 10.5042 44.0282 10.2624C43.6131 9.96461 43.2428 10.0017 42.7435 10.0063C42.6417 10.0055 42.5399 10.0048 42.4351 10.004C42.0986 10.002 41.7623 10.0033 41.4258 10.0048C41.1921 10.0045 40.9584 10.0041 40.7246 10.0035C40.2347 10.0029 39.7449 10.0038 39.255 10.0059C38.6268 10.0084 37.9986 10.0069 37.3704 10.0043C36.8878 10.0027 36.4051 10.0032 35.9225 10.0044C35.6908 10.0046 35.4592 10.0043 35.2275 10.0033C34.9038 10.0022 34.5803 10.0039 34.2567 10.0063C34.1607 10.0054 34.0648 10.0045 33.966 10.0036C33.4328 10.0105 33.4328 10.0105 32.9719 10.2624ZM13.5626 17.0629C13.5626 18.5066 13.5626 19.9504 13.5626 21.4379C16.1613 21.4379 18.7601 21.4379 21.4376 21.4379C21.4376 19.9941 21.4376 18.5504 21.4376 17.0629C18.8388 17.0629 16.2401 17.0629 13.5626 17.0629ZM34.5626 17.0629C34.5626 18.5066 34.5626 19.9504 34.5626 21.4379C37.1613 21.4379 39.7601 21.4379 42.4376 21.4379C42.4376 19.9941 42.4376 18.5504 42.4376 17.0629C39.8388 17.0629 37.2401 17.0629 34.5626 17.0629ZM13.5626 24.0629C13.5581 25.2653 13.5535 26.4676 13.5489 27.7065C13.5469 28.0838 13.5449 28.4611 13.5429 28.8499C13.5421 29.193 13.5421 29.193 13.5417 29.5362C13.5414 29.6871 13.5406 29.838 13.5395 29.9888C13.5282 31.5795 13.6006 33.0489 14.7315 34.269C15.6623 35.1431 16.6915 35.383 17.9286 35.3576C19.0584 35.3047 19.811 34.717 20.5626 33.9066C21.5184 32.6732 21.4537 31.2761 21.4482 29.788C21.4481 29.6412 21.448 29.4944 21.4479 29.3476C21.4473 28.8074 21.4458 28.2672 21.4444 27.727C21.441 25.9132 21.441 25.9132 21.4376 24.0629C18.8388 24.0629 16.2401 24.0629 13.5626 24.0629ZM6.56256 24.0629C6.56256 29.5491 6.56256 35.0354 6.56256 40.6879C20.7113 40.6879 34.8601 40.6879 49.4376 40.6879C49.4376 35.2016 49.4376 29.7154 49.4376 24.0629C47.9938 24.0629 46.5501 24.0629 45.0626 24.0629C45.0597 24.6701 45.0569 25.2774 45.054 25.903C45.0513 26.2904 45.0484 26.6776 45.0451 27.0649C45.0398 27.6782 45.035 28.2913 45.0329 28.9046C45.0313 29.3996 45.0275 29.8946 45.0223 30.3896C45.0207 30.5774 45.0198 30.7652 45.0197 30.953C45.0177 32.9814 44.5569 34.6731 43.1237 36.18C41.7422 37.526 40.0955 37.9995 38.2122 37.9935C36.3638 37.96 34.8584 37.1895 33.5782 35.8754C32.5664 34.7753 32.0166 33.2948 32.0121 31.811C32.0104 31.6844 32.0104 31.6844 32.0087 31.5552C32.0054 31.2795 32.0035 31.0037 32.0017 30.7279C31.9996 30.5355 31.9975 30.343 31.9952 30.1505C31.9896 29.6463 31.9853 29.1422 31.9812 28.638C31.9761 28.0317 31.9693 27.4255 31.9629 26.8193C31.9532 25.9005 31.9456 24.9817 31.9376 24.0629C29.3388 24.0629 26.7401 24.0629 24.0626 24.0629C24.0597 24.6701 24.0569 25.2774 24.054 25.903C24.0513 26.2904 24.0484 26.6776 24.045 27.0649C24.0398 27.6782 24.035 28.2913 24.0329 28.9046C24.0313 29.3996 24.0275 29.8946 24.0223 30.3896C24.0207 30.5774 24.0198 30.7652 24.0197 30.953C24.0177 32.9814 23.5568 34.6731 22.1237 36.18C20.7422 37.526 19.0955 37.9995 17.2122 37.9935C15.3638 37.96 13.8584 37.1895 12.5782 35.8754C11.5664 34.7753 11.0166 33.2948 11.0121 31.811C11.011 31.7266 11.0099 31.6422 11.0087 31.5552C11.0054 31.2795 11.0035 31.0037 11.0017 30.7279C10.9996 30.5355 10.9975 30.343 10.9952 30.1505C10.9896 29.6463 10.9853 29.1422 10.9812 28.638C10.9761 28.0317 10.9693 27.4255 10.9629 26.8193C10.9532 25.9005 10.9456 24.9817 10.9376 24.0629C9.49381 24.0629 8.05006 24.0629 6.56256 24.0629ZM34.5626 24.0629C34.5581 25.2653 34.5535 26.4676 34.5489 27.7065C34.5469 28.0838 34.5449 28.4611 34.5429 28.8499C34.5421 29.193 34.5421 29.193 34.5417 29.5362C34.5414 29.6871 34.5406 29.838 34.5395 29.9888C34.5282 31.5795 34.6006 33.0489 35.7315 34.269C36.6623 35.1431 37.6915 35.383 38.9286 35.3576C40.0584 35.3047 40.811 34.717 41.5626 33.9066C42.5184 32.6732 42.4537 31.2761 42.4482 29.788C42.4481 29.6412 42.448 29.4944 42.4479 29.3476C42.4473 28.8074 42.4458 28.2672 42.4444 27.727C42.441 25.9132 42.441 25.9132 42.4376 24.0629C39.8388 24.0629 37.2401 24.0629 34.5626 24.0629ZM3.23374 43.5123C2.986 43.8569 3.00593 44.1224 3.00446 44.5434C3.00404 44.6194 3.00362 44.6954 3.00319 44.7738C3.00289 44.9341 3.00369 45.0944 3.00553 45.2547C3.00787 45.4997 3.00555 45.7442 3.00275 45.9892C3.00304 46.1453 3.0036 46.3013 3.00446 46.4574C3.00495 46.599 3.00544 46.7405 3.00595 46.8864C3.07405 47.3243 3.14914 47.4251 3.50006 47.6879C3.788 47.7308 4.03022 47.7468 4.31793 47.743C4.40103 47.7436 4.48413 47.7442 4.56976 47.7449C4.84986 47.7465 5.12986 47.745 5.40996 47.7435C5.61214 47.744 5.81432 47.7447 6.0165 47.7455C6.57336 47.7474 7.13018 47.7464 7.68704 47.7451C8.28708 47.7441 8.88712 47.7456 9.48716 47.7468C10.6631 47.7488 11.8391 47.7484 13.0151 47.7471C13.9706 47.7461 14.926 47.746 15.8815 47.7464C16.0173 47.7465 16.1531 47.7466 16.293 47.7466C16.5689 47.7468 16.8447 47.7469 17.1206 47.7471C19.6356 47.7483 22.1505 47.747 24.6655 47.7447C26.9624 47.7427 29.2592 47.7428 31.556 47.7449C34.1354 47.7473 36.7147 47.7482 39.2941 47.7469C39.5689 47.7467 39.8438 47.7466 40.1187 47.7464C40.2539 47.7464 40.3892 47.7463 40.5285 47.7462C41.4832 47.7459 42.4379 47.7465 43.3926 47.7475C44.5555 47.7488 45.7184 47.7484 46.8813 47.7461C47.475 47.7449 48.0687 47.7445 48.6624 47.7459C49.2054 47.7472 49.7483 47.7465 50.2913 47.7442C50.4882 47.7437 50.6852 47.744 50.8821 47.745C51.1489 47.7463 51.4155 47.745 51.6822 47.743C51.7982 47.7445 51.7982 47.7445 51.9166 47.7461C52.2805 47.7405 52.4717 47.7091 52.7664 47.4885C53.0141 47.1439 52.9942 46.8784 52.9957 46.4574C52.9963 46.3434 52.9963 46.3434 52.9969 46.227C52.9972 46.0667 52.9964 45.9064 52.9946 45.7461C52.9923 45.5011 52.9946 45.2566 52.9974 45.0116C52.9971 44.8555 52.9965 44.6995 52.9957 44.5434C52.9949 44.331 52.9949 44.331 52.9942 44.1144C52.9261 43.6765 52.851 43.5757 52.5001 43.3129C52.2121 43.27 51.9699 43.254 51.6822 43.2578C51.5991 43.2572 51.516 43.2566 51.4304 43.2559C51.1503 43.2543 50.8703 43.2558 50.5902 43.2573C50.388 43.2568 50.1858 43.2561 49.9836 43.2553C49.4268 43.2534 48.87 43.2544 48.3131 43.2557C47.7131 43.2567 47.113 43.2552 46.513 43.254C45.337 43.252 44.161 43.2524 42.985 43.2537C42.0296 43.2547 41.0741 43.2548 40.1187 43.2544C39.9829 43.2543 39.8471 43.2542 39.7071 43.2542C39.4313 43.254 39.1554 43.2539 38.8796 43.2537C36.3646 43.2525 33.8496 43.2538 31.3346 43.2561C29.0378 43.2581 26.7409 43.258 24.4441 43.2559C21.8647 43.2535 19.2854 43.2526 16.706 43.2539C16.4312 43.2541 16.1563 43.2542 15.8815 43.2544C15.6786 43.2545 15.6786 43.2545 15.4716 43.2546C14.5169 43.2549 13.5622 43.2543 12.6075 43.2533C11.4446 43.252 10.2818 43.2524 9.11886 43.2547C8.52514 43.2559 7.93144 43.2563 7.33772 43.2549C6.79476 43.2536 6.25183 43.2543 5.70887 43.2566C5.51192 43.2571 5.31496 43.2568 5.118 43.2558C4.85126 43.2545 4.58466 43.2558 4.31793 43.2578C4.24059 43.2568 4.16325 43.2558 4.08357 43.2547C3.71966 43.2603 3.52842 43.2917 3.23374 43.5123Z" fill="#77C49A"/>
</svg>
