<svg width="57" height="56" viewBox="0 0 57 56" fill="none" xmlns="http://www.w3.org/2000/svg">
<path d="M18.1061 0.380018C18.2204 0.379104 18.3348 0.37819 18.4525 0.377249C18.8322 0.374753 19.2118 0.375347 19.5915 0.375964C19.865 0.374833 20.1386 0.373522 20.4121 0.372044C21.0759 0.369008 21.7396 0.368035 22.4033 0.36817C22.9429 0.368261 23.4825 0.367617 24.0221 0.366461C25.7205 0.362892 27.4189 0.361902 29.1174 0.362861C30.456 0.363516 31.7945 0.360186 33.1331 0.355027C34.5095 0.349764 35.8858 0.347352 37.2623 0.347952C38.0342 0.348233 38.8062 0.347365 39.5782 0.34346C40.3037 0.339818 41.0291 0.340159 41.7546 0.34318C42.0207 0.343668 42.2869 0.34285 42.553 0.340627C42.9165 0.337796 43.2797 0.339692 43.6432 0.342768C43.8009 0.33987 43.8009 0.33987 43.9618 0.336914C44.6559 0.349601 45.0011 0.521303 45.4933 1.01052C45.553 1.07417 45.6127 1.13782 45.6741 1.20341C45.7535 1.27826 45.8329 1.35312 45.9147 1.43024C45.9767 1.49216 46.0387 1.55409 46.1025 1.61788C46.1753 1.6904 46.2482 1.76292 46.3232 1.83764C46.3997 1.91432 46.4761 1.99099 46.5549 2.07C46.6381 2.15297 46.7212 2.23594 46.8069 2.32142C47.0789 2.59291 47.3504 2.86479 47.622 3.1367C47.8117 3.32637 48.0015 3.51602 48.1912 3.70566C48.5874 4.10163 48.9833 4.49779 49.3791 4.89409C49.8873 5.40289 50.3959 5.91119 50.9047 6.41935C51.2959 6.81013 51.6868 7.20117 52.0777 7.59229C52.2652 7.77993 52.4529 7.9675 52.6406 8.15498C52.9019 8.416 53.1629 8.67737 53.4237 8.93883C53.5017 9.01662 53.5797 9.0944 53.6601 9.17454C53.7661 9.28101 53.7661 9.28101 53.8743 9.38963C53.9359 9.45134 53.9976 9.51306 54.0611 9.57665C54.3657 9.91024 54.3288 10.1923 54.3295 10.6312C54.3297 10.7018 54.33 10.7724 54.3302 10.8452C54.331 11.0841 54.3309 11.323 54.3309 11.5619C54.3312 11.7341 54.3316 11.9062 54.3321 12.0783C54.3332 12.5531 54.3336 13.0279 54.3339 13.5027C54.3343 14.0141 54.3354 14.5255 54.3363 15.0369C54.3385 16.2731 54.3396 17.5093 54.3405 18.7455C54.341 19.3275 54.3416 19.9094 54.3422 20.4914C54.344 22.4258 54.3456 24.3602 54.3464 26.2946C54.3466 26.7969 54.3468 27.2992 54.3471 27.8014C54.3471 27.9263 54.3472 28.0511 54.3472 28.1797C54.3481 30.2014 54.3509 32.223 54.3545 34.2446C54.3581 36.3197 54.36 38.3947 54.3604 40.4698C54.3606 41.635 54.3616 42.8003 54.3644 43.9655C54.3667 44.9581 54.3676 45.9507 54.3666 46.9433C54.3661 47.4497 54.3663 47.9559 54.3684 48.4623C54.3703 48.9263 54.3702 49.3902 54.3685 49.8543C54.3683 50.0217 54.3687 50.189 54.37 50.3564C54.3814 51.9189 54.0427 53.0594 53.0023 54.2503C52.1988 55.0135 51.136 55.5753 50.0194 55.5775C49.902 55.578 49.7845 55.5784 49.6635 55.579C49.5345 55.5789 49.4055 55.5789 49.2726 55.5789C49.1355 55.5793 48.9984 55.5797 48.8572 55.5801C48.4764 55.5812 48.0956 55.5816 47.7148 55.5819C47.3042 55.5823 46.8936 55.5834 46.483 55.5843C45.4912 55.5865 44.4994 55.5876 43.5077 55.5886C43.0404 55.589 42.5732 55.5896 42.106 55.5902C40.5525 55.5921 38.999 55.5937 37.4455 55.5944C37.0424 55.5947 36.6393 55.5949 36.2363 55.5951C36.086 55.5952 36.086 55.5952 35.9327 55.5952C34.3103 55.5961 32.6879 55.5989 31.0656 55.6025C29.3994 55.6061 27.7332 55.6081 26.067 55.6084C25.1317 55.6086 24.1964 55.6096 23.2611 55.6124C22.4645 55.6148 21.6678 55.6156 20.8712 55.6146C20.465 55.6141 20.0588 55.6143 19.6526 55.6164C19.2115 55.6187 18.7703 55.6176 18.3292 55.6161C18.2019 55.6173 18.0746 55.6185 17.9435 55.6198C16.5734 55.609 15.5303 55.1484 14.5023 54.2503C13.7633 53.4723 13.1859 52.4176 13.1687 51.3329C13.1669 51.2321 13.1652 51.1314 13.1633 51.0275C13.1585 50.5686 13.154 50.1097 13.1515 49.6508C13.1497 49.4089 13.1467 49.167 13.1425 48.9252C13.1365 48.5756 13.1341 48.2262 13.1325 47.8766C13.13 47.769 13.1276 47.6613 13.125 47.5503C13.1265 47.0542 13.1335 46.7043 13.4531 46.3088C13.8921 45.9037 14.1886 45.8951 14.7701 45.8985C15.2196 45.9618 15.4006 46.1565 15.7054 46.4847C15.8777 46.8293 15.8366 47.2005 15.8417 47.5793C15.8453 47.759 15.8489 47.9387 15.8526 48.1185C15.8577 48.4014 15.8626 48.6843 15.8669 48.9673C15.8713 49.2406 15.8769 49.514 15.8827 49.7873C15.8836 49.8706 15.8845 49.9539 15.8855 50.0398C15.9044 50.8718 16.0285 51.6252 16.5804 52.2815C17.3958 52.9025 18.2959 52.8444 19.2712 52.843C19.3997 52.8433 19.5283 52.8435 19.6608 52.8438C20.0168 52.8444 20.3727 52.8444 20.7287 52.8443C21.113 52.8443 21.4973 52.8449 21.8815 52.8454C22.634 52.8463 23.3865 52.8466 24.139 52.8467C24.7508 52.8467 25.3625 52.847 25.9742 52.8473C27.709 52.8483 29.4438 52.8488 31.1787 52.8487C31.2722 52.8487 31.3656 52.8487 31.462 52.8487C31.6024 52.8487 31.6024 52.8487 31.7456 52.8487C33.2628 52.8486 34.78 52.8497 36.2972 52.8512C37.8555 52.8528 39.4138 52.8535 40.9721 52.8534C41.8468 52.8534 42.7215 52.8537 43.5961 52.8549C44.3408 52.8559 45.0855 52.8561 45.8301 52.8554C46.2099 52.855 46.5897 52.855 46.9695 52.856C47.3815 52.8568 47.7936 52.8563 48.2056 52.8555C48.3252 52.856 48.4447 52.8566 48.5679 52.8572C49.4885 52.853 50.3 52.789 51.0335 52.1722C51.5277 51.5233 51.5936 50.8542 51.5956 50.0614C51.5962 49.9245 51.5968 49.7876 51.5974 49.6465C51.5975 49.4954 51.5976 49.3443 51.5977 49.1932C51.5982 49.032 51.5987 48.8708 51.5993 48.7096C51.6008 48.2672 51.6016 47.8247 51.6023 47.3822C51.6032 46.9049 51.6047 46.4276 51.6061 45.9503C51.6085 45.1235 51.6105 44.2967 51.6122 43.4698C51.6147 42.2744 51.6178 41.0789 51.621 39.8835C51.6262 37.944 51.631 36.0044 51.6354 34.0649C51.6397 32.1808 51.6442 30.2967 51.6491 28.4126C51.6495 28.2384 51.6495 28.2384 51.65 28.0607C51.6515 27.4781 51.653 26.8955 51.6545 26.3129C51.6669 21.4795 51.6786 16.6462 51.6898 11.8128C51.5912 11.814 51.4926 11.8152 51.3911 11.8165C50.4609 11.8274 49.5308 11.8358 48.6007 11.8411C48.1225 11.844 47.6443 11.8478 47.1662 11.854C46.7045 11.86 46.2429 11.8633 45.7812 11.8647C45.6053 11.8657 45.4293 11.8676 45.2535 11.8706C45.0065 11.8746 44.7598 11.8751 44.5128 11.8749C44.3725 11.8761 44.2321 11.8773 44.0874 11.8785C43.5835 11.7918 43.4083 11.6235 43.0491 11.2659C42.887 10.9417 42.9267 10.6511 42.9274 10.2894C42.9273 10.2115 42.9273 10.1336 42.9273 10.0533C42.9274 9.79527 42.9282 9.53724 42.9291 9.27921C42.9293 9.10052 42.9295 8.92182 42.9296 8.74312C42.93 8.27237 42.9311 7.80163 42.9323 7.33088C42.9334 6.85069 42.9339 6.37049 42.9344 5.8903C42.9356 4.94779 42.9375 4.00529 42.9398 3.06278C39.7778 3.07175 36.6158 3.08181 33.4538 3.09341C33.0803 3.09478 32.7068 3.09614 32.3334 3.0975C32.259 3.09777 32.1847 3.09804 32.1081 3.09831C30.9049 3.10266 29.7017 3.10624 28.4985 3.10954C27.2635 3.11295 26.0286 3.11719 24.7936 3.12215C24.1001 3.12491 23.4066 3.12729 22.7131 3.12877C22.0603 3.13018 21.4074 3.13259 20.7546 3.13578C20.5151 3.13677 20.2756 3.13739 20.0361 3.13762C19.7088 3.13798 19.3815 3.13968 19.0542 3.1417C18.9597 3.14149 18.8652 3.14128 18.7679 3.14106C17.9127 3.14894 17.1476 3.25944 16.471 3.82841C15.9227 4.5484 15.9099 5.30487 15.9088 6.17655C15.9068 6.35585 15.9046 6.53516 15.9024 6.71446C15.8992 6.99456 15.8968 7.27457 15.8967 7.55469C15.8964 7.82684 15.8926 8.09877 15.8883 8.37089C15.889 8.45396 15.8898 8.53704 15.8906 8.62263C15.8764 9.24419 15.712 9.51783 15.2679 9.95341C14.8605 10.1571 14.3989 10.1253 13.9554 10.0628C13.6135 9.8799 13.3656 9.64873 13.1898 9.29716C13.1772 9.13944 13.1712 8.98119 13.1687 8.823C13.1669 8.72468 13.1652 8.62637 13.1633 8.52508C13.1585 8.07087 13.154 7.61668 13.1515 7.16245C13.1497 6.92432 13.1467 6.68619 13.1425 6.44809C13.1116 4.68537 13.158 3.27946 14.3681 1.88358C15.4181 0.837242 16.6356 0.369426 18.1061 0.380018ZM45.5648 5.03153C45.5648 6.4031 45.5648 7.77466 45.5648 9.18778C46.9363 9.18778 48.3079 9.18778 49.721 9.18778C49.2136 8.59008 49.2136 8.59008 48.6808 8.02399C48.6133 7.95617 48.5458 7.88834 48.4763 7.81846C48.4058 7.74825 48.3354 7.67803 48.2628 7.60569C48.1888 7.53152 48.1147 7.45734 48.0384 7.38092C47.8833 7.22573 47.728 7.07069 47.5726 6.91577C47.3337 6.67739 47.0953 6.43843 46.857 6.19941C46.7058 6.04834 46.5547 5.89731 46.4035 5.74632C46.3319 5.67455 46.2604 5.60279 46.1867 5.52885C45.9173 5.19285 45.9173 5.19285 45.5648 5.03153Z" fill="#77C49A"/>
<path d="M17.455 13.1254C17.525 13.1554 17.5951 13.1853 17.6674 13.2161C19.8241 14.1584 21.4577 15.715 22.3307 17.92C22.6467 18.7863 22.8317 19.522 22.825 20.4454C22.8248 20.5681 22.8248 20.5681 22.8245 20.6932C22.8239 20.9528 22.8226 21.2125 22.8212 21.4721C22.8206 21.6488 22.8201 21.8254 22.8197 22.0021C22.8185 22.4338 22.8166 22.8656 22.8143 23.2973C22.8783 23.3165 22.9423 23.3358 23.0083 23.3556C24.2805 23.7556 25.2308 24.5251 25.8768 25.7035C26.2513 26.5436 26.3781 27.274 26.3709 28.1888C26.3717 28.3108 26.3725 28.4328 26.3733 28.5585C26.3752 28.9581 26.3739 29.3576 26.3724 29.7572C26.3727 30.0371 26.3732 30.317 26.3737 30.5968C26.3743 31.1819 26.3735 31.7669 26.3714 32.352C26.369 33.0255 26.3698 33.6988 26.3722 34.3723C26.3744 35.0239 26.3742 35.6756 26.3729 36.3273C26.3726 36.6029 26.3729 36.8785 26.374 37.154C26.3751 37.5401 26.3734 37.926 26.3709 38.312C26.3718 38.4244 26.3727 38.5368 26.3736 38.6527C26.3583 39.9748 25.8652 41.0122 25.0018 42.0004C24.1627 42.7974 23.0946 43.3244 21.9365 43.329C21.8015 43.3298 21.6664 43.3306 21.5272 43.3314C21.3778 43.3317 21.2284 43.332 21.079 43.3323C20.9215 43.3329 20.7639 43.3337 20.6063 43.3344C20.0889 43.3367 19.5715 43.3379 19.0541 43.339C18.8757 43.3394 18.6972 43.3399 18.5187 43.3403C17.6798 43.3424 16.8409 43.344 16.002 43.3449C15.0356 43.3459 14.0693 43.3488 13.1029 43.3532C12.3547 43.3565 11.6066 43.3582 10.8585 43.3585C10.4122 43.3588 9.96601 43.3597 9.51978 43.3625C9.09935 43.3651 8.67897 43.3655 8.25854 43.3644C8.10507 43.3643 7.9516 43.365 7.79813 43.3665C6.26956 43.3807 5.15973 43.0119 4.00184 42.0004C3.25908 41.2184 2.67978 40.1601 2.6725 39.0694C2.67156 38.9641 2.67062 38.8588 2.66965 38.7504C2.66919 38.6355 2.66872 38.5207 2.66824 38.4024C2.66735 38.2809 2.66645 38.1593 2.66553 38.0341C2.66282 37.6314 2.66101 37.2287 2.65943 36.826C2.65885 36.6882 2.65827 36.5504 2.65767 36.4085C2.65534 35.8287 2.65325 35.2489 2.65202 34.6692C2.65025 33.8416 2.64663 33.0141 2.64038 32.1866C2.63561 31.5325 2.63389 30.8783 2.63319 30.2241C2.63246 29.9471 2.6308 29.6702 2.62817 29.3933C2.6118 27.563 2.61228 26.0867 3.8664 24.6341C4.52557 23.9796 5.21438 23.6045 6.07996 23.2973C6.08098 23.1926 6.08201 23.088 6.08306 22.9802C6.08749 22.5843 6.0947 22.1884 6.10266 21.7926C6.10571 21.6227 6.10805 21.4528 6.1096 21.2829C6.12395 19.8034 6.33728 18.4844 7.03016 17.1518C7.06746 17.079 7.10476 17.0061 7.14319 16.9311C8.23664 14.8727 10.0422 13.6322 12.1986 12.8968C13.8071 12.4182 15.9093 12.4603 17.455 13.1254ZM10.3041 17.1727C8.76851 19.0636 8.81434 20.7922 8.81434 23.1879C12.5681 23.1879 16.3218 23.1879 20.1893 23.1879C20.1893 20.5443 20.1729 18.7685 18.3441 16.848C17.095 15.6613 15.61 15.3544 13.9507 15.3885C12.5545 15.4519 11.2521 16.152 10.3041 17.1727ZM5.97059 26.4692C5.33673 27.2709 5.29793 28.0348 5.29845 29.0249C5.29808 29.126 5.29771 29.2271 5.29734 29.3313C5.2963 29.6644 5.29608 29.9975 5.29597 30.3306C5.29561 30.563 5.29525 30.7954 5.29486 31.0277C5.29421 31.5145 5.294 32.0012 5.29407 32.4879C5.29408 33.1104 5.29259 33.7329 5.2907 34.3555C5.28949 34.8353 5.28927 35.3152 5.28932 35.795C5.2892 36.0245 5.28871 36.2539 5.28787 36.4834C5.28679 36.8048 5.28711 37.1262 5.28777 37.4476C5.28715 37.5416 5.28654 37.6356 5.28591 37.7325C5.29034 38.5884 5.39983 39.3558 5.97059 40.0317C6.64315 40.5634 7.25275 40.701 8.10636 40.7025C8.28251 40.7032 8.28251 40.7032 8.46223 40.7039C8.65299 40.7039 8.65299 40.7039 8.84761 40.7038C9.05047 40.7043 9.05047 40.7043 9.25743 40.7049C9.62714 40.7058 9.99685 40.7061 10.3666 40.7062C10.5979 40.7063 10.8292 40.7065 11.0606 40.7068C11.8686 40.7078 12.6767 40.7083 13.4847 40.7082C14.2364 40.7081 14.988 40.7093 15.7396 40.711C16.3863 40.7124 17.033 40.713 17.6797 40.7129C18.0654 40.7129 18.451 40.7132 18.8366 40.7144C19.267 40.7156 19.6974 40.7151 20.1278 40.7145C20.2545 40.7151 20.3812 40.7157 20.5118 40.7163C21.4522 40.7127 22.2841 40.6641 23.0331 40.0317C23.6669 39.2299 23.7057 38.466 23.7052 37.4759C23.7056 37.3748 23.706 37.2737 23.7063 37.1696C23.7074 36.8364 23.7076 36.5033 23.7077 36.1702C23.7081 35.9378 23.7084 35.7054 23.7088 35.4731C23.7095 34.9863 23.7097 34.4996 23.7096 34.0129C23.7096 33.3904 23.7111 32.7679 23.713 32.1454C23.7142 31.6655 23.7144 31.1856 23.7143 30.7058C23.7145 30.4763 23.715 30.2469 23.7158 30.0174C23.7169 29.696 23.7166 29.3746 23.7159 29.0532C23.7165 28.9592 23.7171 28.8652 23.7178 28.7683C23.7133 27.9124 23.6038 27.1451 23.0331 26.4692C22.3605 25.9374 21.7509 25.7998 20.8973 25.7983C20.7212 25.7976 20.7212 25.7976 20.5414 25.7969C20.3507 25.7969 20.3507 25.7969 20.1561 25.797C20.0208 25.7967 19.8856 25.7963 19.7462 25.7959C19.3765 25.795 19.0068 25.7947 18.6371 25.7946C18.4058 25.7945 18.1744 25.7943 17.9431 25.794C17.135 25.793 16.327 25.7926 15.5189 25.7926C14.7673 25.7927 14.0157 25.7916 13.264 25.7898C12.6173 25.7884 11.9706 25.7878 11.3239 25.7879C10.9383 25.7879 10.5527 25.7876 10.167 25.7864C9.73666 25.7852 9.30629 25.7857 8.87591 25.7863C8.74918 25.7857 8.62245 25.7851 8.49187 25.7845C7.55148 25.7881 6.71957 25.8367 5.97059 26.4692Z" fill="#77C49A"/>
<path d="M29.6436 23.1576C29.7153 23.1571 29.7871 23.1565 29.861 23.1559C30.1018 23.1543 30.3426 23.1542 30.5834 23.1541C30.7558 23.1533 30.9283 23.1524 31.1008 23.1514C31.5697 23.149 32.0386 23.148 32.5075 23.1474C32.8005 23.147 33.0934 23.1464 33.3864 23.1456C34.4084 23.1429 35.4303 23.1415 36.4523 23.1411C37.4049 23.1407 38.3575 23.1374 39.3101 23.1328C40.1279 23.129 40.9457 23.1273 41.7635 23.1273C42.252 23.1272 42.7404 23.1262 43.2289 23.1231C43.6885 23.1203 44.148 23.12 44.6075 23.1218C44.7761 23.122 44.9446 23.1212 45.1131 23.1195C46.5453 23.1056 46.5453 23.1056 46.9761 23.4515C47.3398 23.8998 47.3576 24.2021 47.3544 24.768C47.291 25.2175 47.0964 25.3985 46.7682 25.7032C46.46 25.8573 46.2031 25.8275 45.8583 25.8287C45.7507 25.8293 45.7507 25.8293 45.641 25.8299C45.3996 25.8311 45.1582 25.8316 44.9168 25.832C44.7441 25.8327 44.5715 25.8334 44.3989 25.8342C43.9291 25.8361 43.4592 25.8372 42.9894 25.8381C42.696 25.8387 42.4026 25.8393 42.1092 25.84C41.1916 25.8421 40.2739 25.8437 39.3563 25.8446C38.2964 25.8457 37.2365 25.8485 36.1765 25.853C35.3577 25.8563 34.5389 25.8579 33.7201 25.8582C33.2308 25.8585 32.7416 25.8595 32.2524 25.8622C31.7921 25.8648 31.3318 25.8652 30.8716 25.8641C30.7026 25.8641 30.5337 25.8647 30.3648 25.8662C30.1341 25.8682 29.9036 25.8674 29.6729 25.866C29.5438 25.8662 29.4147 25.8665 29.2817 25.8668C28.805 25.7912 28.5356 25.5651 28.2496 25.1837C28.1343 24.8064 28.1127 24.4496 28.1744 24.0626C28.5524 23.3588 28.8561 23.1608 29.6436 23.1576Z" fill="#77C49A"/>
<path d="M30.365 37.171C30.5061 37.17 30.6472 37.1691 30.7925 37.1681C30.9498 37.1676 31.107 37.1671 31.2643 37.1667C31.4292 37.1658 31.5941 37.1649 31.759 37.164C32.3015 37.1611 32.844 37.1594 33.3865 37.1579C33.5732 37.1573 33.7599 37.1567 33.9466 37.1561C34.7231 37.1537 35.4996 37.1517 36.2761 37.1505C37.3893 37.1487 38.5024 37.1451 39.6156 37.1388C40.3981 37.1346 41.1805 37.1325 41.9631 37.1319C42.4305 37.1315 42.8979 37.1302 43.3653 37.1266C43.8052 37.1233 44.2451 37.1226 44.685 37.1239C44.8463 37.124 45.0076 37.123 45.1688 37.1211C46.5393 37.1057 46.5393 37.1057 46.9698 37.4515C47.3391 37.8986 47.3556 38.2002 47.3524 38.7682C47.289 39.2176 47.0944 39.3986 46.7662 39.7034C46.4652 39.8539 46.223 39.828 45.8861 39.8296C45.6745 39.831 45.6745 39.831 45.4586 39.8325C45.3013 39.833 45.1441 39.8334 44.9868 39.8339C44.8219 39.8347 44.657 39.8357 44.4921 39.8366C43.9496 39.8395 43.4071 39.8411 42.8646 39.8427C42.6779 39.8433 42.4912 39.8439 42.3045 39.8445C41.528 39.8468 40.7515 39.8489 39.975 39.8501C38.8618 39.8519 37.7487 39.8555 36.6355 39.8617C35.853 39.866 35.0706 39.8681 34.288 39.8687C33.8206 39.8691 33.3532 39.8704 32.8858 39.874C32.4459 39.8772 32.006 39.8779 31.5661 39.8766C31.4048 39.8766 31.2435 39.8775 31.0823 39.8794C29.7118 39.8949 29.7118 39.8949 29.2813 39.549C28.912 39.102 28.8955 38.8004 28.8987 38.2324C28.9621 37.7829 29.1567 37.6019 29.4849 37.2972C29.7859 37.1467 30.0281 37.1726 30.365 37.171Z" fill="#77C49A"/>
<path d="M30.365 30.171C30.5061 30.17 30.6472 30.1691 30.7925 30.1681C30.9498 30.1676 31.107 30.1671 31.2643 30.1667C31.4292 30.1658 31.5941 30.1649 31.759 30.164C32.3015 30.1611 32.844 30.1594 33.3865 30.1579C33.5732 30.1573 33.7599 30.1567 33.9466 30.1561C34.7231 30.1537 35.4996 30.1517 36.2761 30.1505C37.3893 30.1487 38.5024 30.1451 39.6156 30.1388C40.3981 30.1346 41.1805 30.1325 41.9631 30.1319C42.4305 30.1315 42.8979 30.1302 43.3653 30.1266C43.8052 30.1233 44.2451 30.1226 44.685 30.1239C44.8463 30.124 45.0076 30.123 45.1688 30.1211C46.5393 30.1057 46.5393 30.1057 46.9698 30.4515C47.3391 30.8986 47.3556 31.2002 47.3524 31.7682C47.289 32.2176 47.0944 32.3986 46.7662 32.7034C46.4652 32.8539 46.223 32.828 45.8861 32.8296C45.6745 32.831 45.6745 32.831 45.4586 32.8325C45.3013 32.833 45.1441 32.8334 44.9868 32.8339C44.8219 32.8347 44.657 32.8357 44.4921 32.8366C43.9496 32.8395 43.4071 32.8411 42.8646 32.8427C42.6779 32.8433 42.4912 32.8439 42.3045 32.8445C41.528 32.8468 40.7515 32.8489 39.975 32.8501C38.8618 32.8519 37.7487 32.8555 36.6355 32.8617C35.853 32.866 35.0706 32.8681 34.288 32.8687C33.8206 32.8691 33.3532 32.8704 32.8858 32.874C32.4459 32.8772 32.006 32.8779 31.5661 32.8766C31.4048 32.8766 31.2435 32.8775 31.0823 32.8794C29.7118 32.8949 29.7118 32.8949 29.2813 32.549C28.912 32.102 28.8955 31.8004 28.8987 31.2324C28.9621 30.7829 29.1567 30.6019 29.4849 30.2972C29.7859 30.1467 30.0281 30.1726 30.365 30.171Z" fill="#77C49A"/>
<path d="M26.15 16.1577C26.2517 16.1566 26.3533 16.1555 26.4581 16.1544C26.5694 16.1543 26.6807 16.1542 26.7954 16.1541C26.9128 16.1532 27.0302 16.1523 27.1512 16.1514C27.5404 16.1487 27.9296 16.1478 28.3188 16.1471C28.589 16.1461 28.8591 16.1451 29.1293 16.1441C29.6961 16.1423 30.263 16.1414 30.8298 16.1411C31.5562 16.1405 32.2826 16.1364 33.009 16.1314C33.5672 16.1282 34.1254 16.1274 34.6836 16.1273C34.9514 16.1268 35.2192 16.1254 35.4869 16.1232C35.8617 16.1202 36.2362 16.1207 36.6109 16.1221C36.7216 16.1205 36.8322 16.1189 36.9462 16.1172C37.4431 16.1224 37.7938 16.1321 38.19 16.4515C38.5945 16.8902 38.603 17.1871 38.5996 17.768C38.5363 18.2175 38.3417 18.3985 38.0134 18.7033C37.7552 18.8324 37.5992 18.8272 37.3112 18.8288C37.2095 18.8295 37.1078 18.8303 37.0031 18.8311C36.8912 18.8314 36.7793 18.8317 36.6641 18.832C36.4877 18.8331 36.4877 18.8331 36.3078 18.8342C35.9175 18.8364 35.5271 18.8376 35.1368 18.8387C34.9372 18.8394 34.9372 18.8394 34.7336 18.8401C34.0295 18.8424 33.3253 18.8439 32.6212 18.8449C31.8929 18.846 31.1647 18.8499 30.4365 18.8543C29.8773 18.8571 29.3182 18.858 28.7591 18.8584C28.4906 18.859 28.2221 18.8602 27.9536 18.8623C27.5781 18.8649 27.2027 18.8648 26.8272 18.8641C26.7159 18.8655 26.6047 18.8669 26.4901 18.8683C26.0074 18.8647 25.7334 18.862 25.3163 18.6027C24.9277 18.1799 24.8387 17.8728 24.853 17.2848C24.9114 16.9188 25.0928 16.6861 25.3259 16.4064C25.6716 16.176 25.7551 16.1599 26.15 16.1577Z" fill="#77C49A"/>
<path d="M26.6658 44.1706C26.7627 44.1696 26.8596 44.1687 26.9595 44.1677C27.0661 44.1673 27.1726 44.1668 27.2825 44.1663C27.3945 44.1654 27.5066 44.1645 27.622 44.1636C27.9941 44.1609 28.3661 44.1591 28.7382 44.1575C28.8651 44.1569 28.992 44.1563 29.1227 44.1557C29.7943 44.1528 30.466 44.1507 31.1376 44.1491C31.8318 44.1473 32.5259 44.1424 33.2201 44.1368C33.7534 44.1332 34.2867 44.1319 34.8201 44.1313C35.0759 44.1305 35.3318 44.1289 35.5877 44.1263C35.9459 44.1228 36.304 44.1228 36.6622 44.1236C36.7679 44.1218 36.8736 44.12 36.9826 44.1182C37.4693 44.1227 37.8024 44.1387 38.1898 44.4512C38.5981 44.8891 38.6058 45.1852 38.6025 45.7678C38.5391 46.2173 38.3445 46.3983 38.0163 46.703C37.7635 46.8295 37.6169 46.8272 37.3355 46.8293C37.2386 46.8302 37.1417 46.8311 37.0418 46.8321C36.9353 46.8326 36.8287 46.833 36.7188 46.8335C36.5508 46.8349 36.5508 46.8349 36.3793 46.8362C36.0072 46.8389 35.6352 46.8408 35.2631 46.8423C35.1362 46.8429 35.0093 46.8435 34.8786 46.8441C34.207 46.847 33.5353 46.8491 32.8637 46.8507C32.1695 46.8525 31.4754 46.8574 30.7813 46.863C30.2479 46.8667 29.7146 46.8679 29.1813 46.8686C28.9254 46.8693 28.6695 46.871 28.4136 46.8736C28.0554 46.877 27.6973 46.8771 27.3391 46.8762C27.1805 46.8789 27.1805 46.8789 27.0188 46.8817C26.532 46.8772 26.1989 46.8612 25.8115 46.5487C25.4032 46.1108 25.3955 45.8146 25.3988 45.232C25.4622 44.7826 25.6568 44.6016 25.985 44.2968C26.2379 44.1704 26.3844 44.1726 26.6658 44.1706Z" fill="#77C49A"/>
<path d="M30.461 9.1665C30.5389 9.1656 30.6168 9.16471 30.6971 9.16379C30.9555 9.16107 31.2139 9.15926 31.4724 9.15769C31.5607 9.1571 31.6489 9.15652 31.7399 9.15592C32.2073 9.153 32.6747 9.15088 33.1421 9.1493C33.6244 9.14748 34.1066 9.14259 34.5889 9.13701C34.9601 9.13333 35.3313 9.13207 35.7025 9.13145C35.8802 9.13072 36.058 9.12905 36.2357 9.12643C36.485 9.12296 36.734 9.12296 36.9833 9.12377C37.125 9.12289 37.2667 9.12201 37.4126 9.12109C37.9183 9.20851 38.0934 9.37549 38.4536 9.73447C38.6573 10.1419 38.6254 10.6034 38.563 11.047C38.3801 11.3889 38.1489 11.6368 37.7973 11.8126C37.5451 11.8255 37.2925 11.8312 37.0399 11.8337C36.9231 11.835 36.9231 11.835 36.8038 11.8364C36.5454 11.8391 36.287 11.8409 36.0285 11.8425C35.8961 11.8434 35.8961 11.8434 35.761 11.8443C35.2936 11.8472 34.8263 11.8493 34.3589 11.8509C33.8765 11.8527 33.3943 11.8576 32.912 11.8632C32.5408 11.8669 32.1696 11.8681 31.7984 11.8687C31.6207 11.8695 31.4429 11.8711 31.2652 11.8738C31.0159 11.8772 30.7669 11.8772 30.5176 11.8764C30.3051 11.8777 30.3051 11.8777 30.0883 11.8791C29.5826 11.7917 29.4075 11.6247 29.0473 11.2657C28.8436 10.8583 28.8755 10.3967 28.938 9.95322C29.3072 9.26292 29.7236 9.17384 30.461 9.1665Z" fill="#77C49A"/>
<path d="M43.8969 44.1496C44.1137 44.1478 44.3306 44.1448 44.5474 44.1407C44.8604 44.1347 45.1732 44.1323 45.4863 44.1307C45.5827 44.1282 45.6791 44.1257 45.7784 44.1232C46.2505 44.1248 46.5604 44.1482 46.9352 44.4513C47.3491 44.8882 47.3559 45.1832 47.3525 45.7683C47.2891 46.2178 47.0945 46.3988 46.7663 46.7036C46.1863 46.9935 45.2505 46.8473 44.6044 46.8512C44.3876 46.853 44.1708 46.856 43.9539 46.8602C43.641 46.8662 43.3281 46.8686 43.0151 46.8702C42.8705 46.8739 42.8705 46.8739 42.7229 46.8777C42.2508 46.8761 41.9409 46.8526 41.5662 46.5496C41.1522 46.1127 41.1455 45.8177 41.1489 45.2325C41.2122 44.7831 41.4068 44.6021 41.735 44.2973C42.315 44.0073 43.2508 44.1536 43.8969 44.1496Z" fill="#77C49A"/>
<path d="M43.8969 16.1496C44.1137 16.1478 44.3306 16.1448 44.5474 16.1407C44.8604 16.1347 45.1732 16.1323 45.4863 16.1307C45.5827 16.1282 45.6791 16.1257 45.7784 16.1232C46.2505 16.1248 46.5604 16.1482 46.9352 16.4513C47.3491 16.8882 47.3559 17.1832 47.3525 17.7683C47.2891 18.2178 47.0945 18.3988 46.7663 18.7036C46.1863 18.9935 45.2505 18.8473 44.6044 18.8512C44.3876 18.853 44.1708 18.856 43.9539 18.8602C43.641 18.8662 43.3281 18.8686 43.0151 18.8702C42.8705 18.8739 42.8705 18.8739 42.7229 18.8777C42.2508 18.8761 41.9409 18.8526 41.5662 18.5496C41.1522 18.1127 41.1455 17.8177 41.1489 17.2325C41.2122 16.7831 41.4068 16.6021 41.735 16.2973C42.315 16.0073 43.2508 16.1536 43.8969 16.1496Z" fill="#77C49A"/>
<path d="M22.8969 9.14964C23.1137 9.14783 23.3306 9.14485 23.5474 9.14067C23.8604 9.13466 24.1732 9.13228 24.4863 9.13068C24.5827 9.1282 24.6791 9.12572 24.7784 9.12317C25.2505 9.12478 25.5604 9.14822 25.9352 9.45128C26.3491 9.88816 26.3559 10.1832 26.3525 10.7683C26.2891 11.2178 26.0945 11.3988 25.7663 11.7036C25.1863 11.9935 24.2505 11.8473 23.6044 11.8512C23.3876 11.853 23.1708 11.856 22.9539 11.8602C22.641 11.8662 22.3281 11.8686 22.0151 11.8702C21.8705 11.8739 21.8705 11.8739 21.7229 11.8777C21.2508 11.8761 20.9409 11.8526 20.5662 11.5496C20.1522 11.1127 20.1455 10.8177 20.1489 10.2325C20.2122 9.78308 20.4068 9.60208 20.735 9.29731C21.315 9.00732 22.2508 9.15359 22.8969 9.14964Z" fill="#77C49A"/>
</svg>
