<svg width="57" height="56" viewBox="0 0 57 56" fill="none" xmlns="http://www.w3.org/2000/svg">
<g clip-path="url(#clip0_314_2370)">
<path d="M40.6652 14.4206C40.7621 14.4196 40.859 14.4187 40.9589 14.4177C41.0655 14.4173 41.1721 14.4168 41.2819 14.4163C41.3939 14.4154 41.506 14.4145 41.6215 14.4136C41.9935 14.4109 42.3656 14.4091 42.7376 14.4075C42.8645 14.4069 42.9914 14.4063 43.1221 14.4057C43.7938 14.4028 44.4654 14.4007 45.137 14.3991C45.8312 14.3973 46.5253 14.3924 47.2195 14.3868C47.7528 14.3832 48.2861 14.3819 48.8195 14.3813C49.0754 14.3805 49.3313 14.3789 49.5871 14.3763C49.9453 14.3728 50.3034 14.3728 50.6616 14.3736C50.7674 14.3718 50.8731 14.37 50.982 14.3682C51.4687 14.3727 51.8018 14.3887 52.1892 14.7012C52.5323 15.0692 52.5762 15.2222 52.576 15.71C52.5762 15.8174 52.5765 15.9249 52.5767 16.0357C52.5764 16.1546 52.576 16.2736 52.5757 16.3961C52.5759 16.5847 52.5759 16.5847 52.576 16.777C52.5762 17.127 52.5758 17.4769 52.5753 17.8268C52.5748 18.2038 52.575 18.5807 52.575 18.9577C52.5751 19.6111 52.5747 20.2646 52.5741 20.9181C52.5732 21.8628 52.573 22.8076 52.5728 23.7524C52.5726 25.2852 52.5719 26.8179 52.5708 28.3507C52.5698 29.8399 52.569 31.3291 52.5686 32.8183C52.5685 32.9559 52.5685 32.9559 52.5685 33.0963C52.5683 33.5566 52.5682 34.0168 52.5681 34.4771C52.5669 38.2972 52.565 42.1173 52.5626 45.9374C52.6506 45.9349 52.7386 45.9323 52.8293 45.9297C52.9458 45.9278 53.0624 45.9258 53.1825 45.9237C53.2976 45.9212 53.4127 45.9187 53.5312 45.9161C54.3019 45.9639 54.884 46.3538 55.3995 46.9081C56.0338 47.6531 56.1136 48.3666 56.1138 49.3097C56.1147 49.4225 56.1155 49.5354 56.1164 49.6516C56.1175 49.8896 56.1179 50.1276 56.1174 50.3656C56.1173 50.7272 56.1218 51.0885 56.1267 51.45C56.1272 51.6822 56.1275 51.9144 56.1275 52.1466C56.1293 52.2534 56.1311 52.3602 56.1329 52.4702C56.1244 53.3361 55.8943 54.0589 55.2981 54.7042C54.6076 55.3577 53.9361 55.6127 52.9913 55.6043C52.9051 55.6049 52.8189 55.6054 52.73 55.606C52.4412 55.6074 52.1525 55.6065 51.8637 55.6056C51.6545 55.6061 51.4453 55.6068 51.2361 55.6076C50.6613 55.6094 50.0865 55.6091 49.5117 55.6085C48.8917 55.6082 48.2718 55.6098 47.6518 55.6111C46.4373 55.6135 45.2227 55.6139 44.0082 55.6138C43.0211 55.6136 42.0339 55.614 41.0468 55.6148C40.7626 55.6151 40.4783 55.6153 40.1941 55.6155C39.9819 55.6157 39.9819 55.6157 39.7654 55.6159C37.8496 55.6174 35.9338 55.6182 34.0179 55.6177C33.943 55.6177 33.8681 55.6177 33.7909 55.6176C33.4112 55.6175 33.0315 55.6174 32.6518 55.6173C32.5764 55.6173 32.501 55.6173 32.4233 55.6173C32.2708 55.6172 32.1183 55.6172 31.9659 55.6171C29.5933 55.6165 27.2208 55.6182 24.8483 55.6217C22.1823 55.6256 19.5163 55.6278 16.8503 55.6272C15.4388 55.627 14.0274 55.6275 12.616 55.6303C11.4144 55.6326 10.2128 55.633 9.01115 55.6309C8.39807 55.6299 7.78502 55.6298 7.17194 55.632C6.61053 55.6341 6.04918 55.6336 5.48777 55.6311C5.28485 55.6306 5.08193 55.6311 4.87902 55.6326C3.71642 55.6405 2.69528 55.6376 1.79901 54.7979C1.03451 54.0032 0.886513 53.2588 0.886293 52.1902C0.885461 52.0773 0.884628 51.9645 0.88377 51.8482C0.882592 51.6102 0.882275 51.3722 0.882769 51.1342C0.882875 50.7727 0.878322 50.4114 0.873476 50.0499C0.872906 49.8177 0.872612 49.5855 0.872622 49.3532C0.870828 49.2465 0.869035 49.1397 0.867188 49.0296C0.875781 48.1638 1.10623 47.4427 1.70048 46.7961C2.34137 46.1928 2.9199 45.9199 3.80695 45.9302C3.92506 45.9312 4.04318 45.9322 4.16487 45.9333C4.25486 45.9347 4.34485 45.936 4.43756 45.9374C4.43706 45.8157 4.43655 45.694 4.43603 45.5686C4.4239 42.6083 4.41491 39.648 4.40923 36.6877C4.40641 35.2561 4.40256 33.8245 4.39631 32.393C4.39086 31.1454 4.38733 29.8977 4.38611 28.6501C4.3854 27.9894 4.38372 27.3287 4.37974 26.6679C4.37603 26.0462 4.37488 25.4244 4.37571 24.8026C4.37556 24.5743 4.37447 24.346 4.37237 24.1177C4.36965 23.8061 4.37031 23.4946 4.3718 23.183C4.37021 23.0926 4.36861 23.0021 4.36697 22.909C4.37282 22.4575 4.41308 22.1778 4.70144 21.8205C5.05178 21.4817 5.19544 21.424 5.66522 21.4206C5.76213 21.4196 5.85903 21.4187 5.95887 21.4177C6.06546 21.4173 6.17206 21.4168 6.28188 21.4163C6.39394 21.4154 6.50599 21.4145 6.62145 21.4136C6.9935 21.4109 7.36555 21.4091 7.73761 21.4075C7.8645 21.4069 7.99139 21.4063 8.12212 21.4057C8.79376 21.4028 9.46539 21.4007 10.137 21.3991C10.8312 21.3973 11.5253 21.3924 12.2195 21.3868C12.7528 21.3832 13.2861 21.3819 13.8195 21.3813C14.0754 21.3805 14.3312 21.3789 14.5871 21.3763C14.9453 21.3728 15.3034 21.3728 15.6616 21.3736C15.7673 21.3718 15.8731 21.37 15.982 21.3682C16.4687 21.3727 16.8018 21.3887 17.1892 21.7012C17.6213 22.1646 17.5778 22.5234 17.5757 23.1304C17.5759 23.2761 17.5759 23.2761 17.576 23.4247C17.5762 23.752 17.5756 24.0793 17.575 24.4066C17.575 24.6405 17.575 24.8744 17.575 25.1082C17.5751 25.7448 17.5744 26.3813 17.5737 27.0179C17.573 27.6825 17.5729 28.3471 17.5728 29.0118C17.5724 30.2711 17.5715 31.5304 17.5704 32.7897C17.5692 34.223 17.5686 35.6564 17.5681 37.0898C17.5669 40.039 17.5649 42.9882 17.5626 45.9374C19.0063 45.9374 20.4501 45.9374 21.9376 45.9374C21.9347 45.3809 21.9318 44.8244 21.9289 44.251C21.9198 42.4144 21.9138 40.5778 21.9092 38.7412C21.9064 37.6274 21.9026 36.5137 21.8963 35.3999C21.8909 34.4292 21.8873 33.4585 21.8861 32.4877C21.8854 31.9737 21.8837 31.4597 21.8797 30.9457C21.876 30.4618 21.8749 29.9779 21.8757 29.494C21.8756 29.3165 21.8745 29.139 21.8724 28.9615C21.8696 28.7188 21.8703 28.4764 21.8718 28.2337C21.871 28.0301 21.871 28.0301 21.8703 27.8225C21.96 27.3298 22.1349 27.1503 22.4844 26.7968C22.7373 26.6704 22.8838 26.6726 23.1652 26.6706C23.2621 26.6696 23.359 26.6687 23.4589 26.6677C23.5655 26.6673 23.6721 26.6668 23.7819 26.6663C23.8939 26.6654 24.006 26.6645 24.1215 26.6636C24.4935 26.6609 24.8656 26.6591 25.2376 26.6575C25.3645 26.6569 25.4914 26.6563 25.6221 26.6557C26.2938 26.6528 26.9654 26.6507 27.637 26.6491C28.3312 26.6473 29.0253 26.6424 29.7195 26.6368C30.2528 26.6332 30.7861 26.6319 31.3195 26.6313C31.5754 26.6305 31.8312 26.6289 32.0871 26.6263C32.4453 26.6228 32.8034 26.6228 33.1616 26.6236C33.2673 26.6218 33.3731 26.62 33.482 26.6182C33.9687 26.6227 34.3018 26.6387 34.6892 26.9512C35.0912 27.3823 35.0761 27.599 35.0757 28.1811C35.0759 28.2946 35.0759 28.2946 35.076 28.4104C35.0762 28.6652 35.0756 28.9199 35.075 29.1747C35.075 29.3568 35.075 29.539 35.075 29.7211C35.0751 30.2167 35.0744 30.7122 35.0737 31.2078C35.073 31.7252 35.0729 32.2427 35.0728 32.7602C35.0724 33.7406 35.0715 34.721 35.0704 35.7014C35.0692 36.8174 35.0686 37.9333 35.0681 39.0493C35.0669 41.3453 35.0649 43.6414 35.0626 45.9374C36.5063 45.9374 37.9501 45.9374 39.4376 45.9374C39.4364 45.5538 39.4351 45.1702 39.4339 44.775C39.423 41.2583 39.4148 37.7416 39.4096 34.2248C39.409 33.764 39.4083 33.3031 39.4075 32.8423C39.4074 32.7506 39.4072 32.6588 39.4071 32.5643C39.4047 31.0784 39.4004 29.5925 39.3954 28.1066C39.3903 26.5822 39.3872 25.0578 39.3861 23.5333C39.3854 22.5925 39.383 21.6517 39.3786 20.7109C39.3757 20.066 39.3748 19.421 39.3755 18.776C39.3758 18.4038 39.3753 18.0316 39.3724 17.6594C39.3697 17.2558 39.3703 16.8523 39.3718 16.4488C39.3702 16.3311 39.3686 16.2134 39.367 16.0922C39.3759 15.2082 39.3759 15.2082 39.7014 14.8039C40.0539 14.4837 40.2044 14.4239 40.6652 14.4206ZM42.0626 17.0624C42.0626 26.5912 42.0626 36.1199 42.0626 45.9374C44.6613 45.9374 47.2601 45.9374 49.9376 45.9374C49.9376 36.4087 49.9376 26.8799 49.9376 17.0624C47.3388 17.0624 44.7401 17.0624 42.0626 17.0624ZM7.06256 24.0624C7.06256 31.2812 7.06256 38.4999 7.06256 45.9374C9.66131 45.9374 12.2601 45.9374 14.9376 45.9374C14.9376 38.7187 14.9376 31.4999 14.9376 24.0624C12.3388 24.0624 9.74006 24.0624 7.06256 24.0624ZM24.5626 29.3124C24.5626 34.7987 24.5626 40.2849 24.5626 45.9374C27.1613 45.9374 29.7601 45.9374 32.4376 45.9374C32.4376 40.4512 32.4376 34.9649 32.4376 29.3124C29.8388 29.3124 27.2401 29.3124 24.5626 29.3124ZM3.73374 48.7619C3.486 49.1064 3.50593 49.3719 3.50446 49.7929C3.50404 49.8689 3.50362 49.9449 3.50319 50.0233C3.50289 50.1836 3.50369 50.3439 3.50553 50.5042C3.50787 50.7492 3.50555 50.9938 3.50275 51.2387C3.50304 51.3948 3.5036 51.5509 3.50446 51.7069C3.50495 51.8485 3.50544 51.9901 3.50595 52.1359C3.57405 52.5738 3.64914 52.6746 4.00006 52.9374C4.288 52.9803 4.53022 52.9963 4.81793 52.9925C4.90103 52.9931 4.98414 52.9937 5.06976 52.9944C5.34986 52.996 5.62986 52.9945 5.90996 52.993C6.11214 52.9935 6.31432 52.9942 6.5165 52.995C7.07336 52.9969 7.63018 52.996 8.18704 52.9946C8.78708 52.9936 9.38712 52.9951 9.98716 52.9963C11.1631 52.9983 12.3391 52.9979 13.5151 52.9966C14.4706 52.9956 15.426 52.9955 16.3815 52.996C16.5173 52.996 16.6531 52.9961 16.793 52.9962C17.0689 52.9963 17.3447 52.9964 17.6206 52.9966C20.1356 52.9978 22.6505 52.9965 25.1655 52.9943C27.4624 52.9922 29.7592 52.9924 32.056 52.9945C34.6354 52.9968 37.2147 52.9977 39.7941 52.9964C40.0689 52.9962 40.3438 52.9961 40.6187 52.996C40.7539 52.9959 40.8892 52.9958 41.0285 52.9958C41.9832 52.9954 42.9379 52.996 43.8926 52.997C45.0555 52.9983 46.2184 52.9979 47.3813 52.9956C47.975 52.9945 48.5687 52.994 49.1624 52.9955C49.7054 52.9968 50.2483 52.996 50.7913 52.9937C50.9882 52.9932 51.1852 52.9935 51.3821 52.9945C51.6489 52.9959 51.9155 52.9945 52.1822 52.9925C52.2982 52.994 52.2982 52.994 52.4166 52.9956C52.7805 52.99 52.9717 52.9586 53.2664 52.738C53.5141 52.3934 53.4942 52.1279 53.4957 51.7069C53.4963 51.5929 53.4963 51.5929 53.4969 51.4766C53.4972 51.3162 53.4964 51.1559 53.4946 50.9956C53.4923 50.7506 53.4946 50.5061 53.4974 50.2611C53.4971 50.1051 53.4965 49.949 53.4957 49.7929C53.4949 49.5806 53.4949 49.5806 53.4942 49.3639C53.4261 48.926 53.351 48.8252 53.0001 48.5624C52.7121 48.5195 52.4699 48.5035 52.1822 48.5074C52.0991 48.5067 52.016 48.5061 51.9304 48.5054C51.6503 48.5038 51.3703 48.5054 51.0902 48.5069C50.888 48.5064 50.6858 48.5057 50.4836 48.5048C49.9268 48.503 49.37 48.5039 48.8131 48.5052C48.2131 48.5062 47.613 48.5047 47.013 48.5035C45.837 48.5015 44.661 48.502 43.485 48.5032C42.5296 48.5042 41.5741 48.5043 40.6187 48.5039C40.4829 48.5038 40.3471 48.5037 40.2071 48.5037C39.9313 48.5035 39.6554 48.5034 39.3796 48.5032C36.8646 48.502 34.3496 48.5033 31.8346 48.5056C29.5378 48.5077 27.2409 48.5075 24.9441 48.5054C22.3647 48.503 19.7854 48.5021 17.206 48.5035C16.9312 48.5036 16.6563 48.5037 16.3815 48.5039C16.1786 48.504 16.1786 48.504 15.9716 48.5041C15.0169 48.5045 14.0622 48.5038 13.1075 48.5028C11.9446 48.5016 10.7818 48.5019 9.61886 48.5042C9.02514 48.5054 8.43144 48.5058 7.83772 48.5044C7.29476 48.5031 6.75183 48.5038 6.20887 48.5061C6.01192 48.5066 5.81496 48.5063 5.618 48.5053C5.35126 48.504 5.08466 48.5053 4.81793 48.5074C4.74059 48.5063 4.66325 48.5053 4.58357 48.5043C4.21966 48.5099 4.02842 48.5412 3.73374 48.7619Z" fill="#77C49A"/>
<path d="M47.4824 0.65648C48.2726 1.12745 48.7524 1.76474 49.0615 2.62523C49.1868 3.65016 49.1613 4.6223 48.5146 5.46898C47.9358 6.10588 47.3168 6.52223 46.4395 6.60246C46.2903 6.60232 46.1412 6.60045 45.9921 6.59691C45.9176 6.59726 45.8431 6.59761 45.7663 6.59798C45.3991 6.5941 45.13 6.56532 44.7903 6.42046C44.4497 6.30299 44.4497 6.30299 44.0977 6.53197C43.9597 6.63114 43.8233 6.73274 43.6884 6.83617C43.5322 6.9497 43.376 7.06321 43.2197 7.17668C43.1378 7.2374 43.0559 7.29811 42.9714 7.36066C42.544 7.67478 42.1073 7.97564 41.6718 8.27855C41.4863 8.40851 41.3009 8.53854 41.1155 8.66862C40.4955 9.10311 39.8737 9.53508 39.2519 9.96703C38.4462 10.5269 37.6424 11.0893 36.8414 11.656C36.2562 12.07 35.6694 12.4818 35.082 12.8928C34.992 12.9558 34.9019 13.0188 34.8092 13.0837C34.3218 13.4247 33.8342 13.7653 33.3465 14.1058C33.2457 14.1762 33.1448 14.2466 33.0409 14.3192C32.8462 14.4553 32.6513 14.5913 32.4564 14.7271C32.3258 14.8184 32.3258 14.8184 32.1925 14.9115C32.0768 14.9923 32.0768 14.9923 31.9587 15.0747C31.7852 15.1925 31.7852 15.1925 31.6708 15.3127C31.6591 15.5108 31.6506 15.7091 31.6435 15.9075C31.5701 16.8298 31.273 17.5164 30.5908 18.1496C29.8296 18.7978 29.0227 18.8911 28.0563 18.8572C27.2334 18.7726 26.6754 18.4531 26.1064 17.8625C25.8391 17.5305 25.7115 17.2494 25.5936 16.8423C25.4675 16.5195 25.3908 16.3414 25.1044 16.1421C24.8135 16.0226 24.5254 15.9341 24.2218 15.8516C24.1096 15.8173 23.9973 15.7831 23.8816 15.7477C23.5114 15.6358 23.1396 15.5302 22.7675 15.4247C22.5094 15.3481 22.2514 15.2712 21.9935 15.1939C21.3149 14.9918 20.6349 14.7952 19.9545 14.5995C19.399 14.4388 18.8448 14.2742 18.2905 14.1095C17.6299 13.9131 16.9688 13.7184 16.3075 13.5243C16.1181 13.4686 16.1181 13.4686 15.9249 13.4119C15.5678 13.3074 15.2103 13.204 14.8528 13.101C14.747 13.07 14.6412 13.039 14.5323 13.0071C14.3858 12.9653 14.3858 12.9653 14.2363 12.9226C14.1519 12.8982 14.0675 12.8738 13.9805 12.8487C13.5823 12.7656 13.2909 12.7404 12.9293 12.9368C12.8472 12.9967 12.7652 13.0567 12.6806 13.1184C11.9097 13.6749 11.0461 13.6649 10.124 13.5627C9.31778 13.3404 8.71846 12.8367 8.26459 12.1409C7.81587 11.2571 7.76175 10.2497 8.02875 9.29539C8.38616 8.50813 8.95112 7.97263 9.71595 7.58427C10.5725 7.27662 11.6454 7.27652 12.4824 7.65648C13.1972 8.08535 13.672 8.60609 13.9045 9.4092C14.0303 9.73147 14.1054 9.90866 14.3931 10.1052C14.6838 10.2202 14.9711 10.3039 15.274 10.3815C15.3861 10.414 15.4983 10.4466 15.6138 10.4802C15.984 10.5868 16.3556 10.687 16.7275 10.7873C16.9857 10.8603 17.2437 10.9337 17.5017 11.0076C18.0434 11.1622 18.5858 11.3146 19.1285 11.4659C19.9715 11.7024 20.8093 11.9539 21.6468 12.2088C21.9179 12.291 22.189 12.3731 22.4601 12.4553C22.8532 12.5744 23.2462 12.6937 23.639 12.8137C24.0031 12.9246 24.3676 13.0339 24.7324 13.1427C24.8403 13.176 24.9483 13.2093 25.0596 13.2436C25.1593 13.2731 25.259 13.3025 25.3617 13.3329C25.4479 13.3589 25.5341 13.385 25.623 13.4118C26.1151 13.4932 26.4695 13.3421 26.872 13.0705C27.4064 12.7129 27.8449 12.6678 28.4785 12.6672C28.5549 12.6659 28.6314 12.6645 28.7102 12.6632C29.0868 12.6621 29.3537 12.6785 29.6991 12.836C30.0911 12.9194 30.1441 12.8762 30.472 12.6706C30.6408 12.551 30.8079 12.4289 30.9736 12.3049C31.0642 12.24 31.1548 12.175 31.2481 12.1081C31.4397 11.9708 31.6306 11.8325 31.821 11.6935C32.1853 11.4287 32.5545 11.1713 32.9243 10.9142C33.1985 10.7236 33.4719 10.5319 33.7451 10.34C34.2929 9.95534 34.8412 9.57147 35.3896 9.18773C35.5719 9.06013 35.7542 8.93252 35.9365 8.80492C37.0302 8.03929 37.0302 8.03929 37.3037 7.84783C37.4858 7.72041 37.6678 7.59298 37.8498 7.46555C38.3095 7.14371 38.7693 6.82195 39.2293 6.50035C39.3213 6.43594 39.4134 6.37152 39.5083 6.30515C39.6911 6.17731 39.8739 6.04953 40.0568 5.92181C40.5066 5.6073 40.9551 5.29114 41.4014 4.97166C41.4873 4.91035 41.5732 4.84904 41.6617 4.78587C41.8243 4.66963 41.9867 4.55298 42.1487 4.43584C42.6934 4.0471 42.6934 4.0471 42.9365 4.0471C42.9301 3.95715 42.9238 3.8672 42.9172 3.77452C42.8769 2.77537 43.0051 2.06071 43.6876 1.30547C44.7063 0.356111 46.1913 0.070368 47.4824 0.65648Z" fill="#77C49A"/>
</g>
<defs>
<clipPath id="clip0_314_2370">
<rect width="56" height="56" fill="white" transform="translate(0.5)"/>
</clipPath>
</defs>
</svg>
