<svg width="57" height="56" viewBox="0 0 57 56" fill="none" xmlns="http://www.w3.org/2000/svg">
<g clip-path="url(#clip0_314_2147)">
<path d="M6.60408 2.1315C6.80081 2.13092 6.99754 2.13015 7.19426 2.1292C7.73252 2.12717 8.27075 2.12785 8.80901 2.129C9.39042 2.12977 9.97182 2.12801 10.5532 2.12659C11.6914 2.12423 12.8295 2.12424 13.9676 2.12513C14.8928 2.12582 15.818 2.12569 16.7433 2.12499C16.8751 2.12489 17.0068 2.12479 17.1426 2.12469C17.4103 2.12449 17.678 2.12429 17.9458 2.12408C20.4553 2.12227 22.9649 2.12322 25.4745 2.12506C27.7693 2.12667 30.0641 2.12507 32.3588 2.12192C34.7165 2.1187 37.0741 2.1175 39.4317 2.11855C39.6985 2.11866 39.9653 2.11877 40.2321 2.11887C40.429 2.11895 40.429 2.11895 40.6298 2.11903C41.5536 2.11927 42.4773 2.1182 43.401 2.1166C44.5273 2.11468 45.6536 2.1147 46.7799 2.11719C47.3543 2.1184 47.9286 2.11875 48.5029 2.11672C49.0293 2.11487 49.5557 2.11558 50.0821 2.11827C50.2719 2.1188 50.4617 2.11843 50.6515 2.11701C52.168 2.10656 53.4302 2.33555 54.619 3.36614C55.6521 4.40281 56.1107 5.5746 56.1233 7.02955C56.1224 7.16992 56.1214 7.31029 56.1204 7.45491C56.1209 7.60848 56.1216 7.76206 56.1225 7.91563C56.1243 8.3346 56.1234 8.75352 56.122 9.17249C56.121 9.62551 56.1226 10.0785 56.1238 10.5315C56.1257 11.4178 56.1253 12.304 56.124 13.1903C56.123 13.9108 56.1229 14.6313 56.1234 15.3519C56.1234 15.4546 56.1235 15.5573 56.1236 15.6631C56.1237 15.8717 56.1239 16.0804 56.124 16.289C56.1253 18.2438 56.1238 20.1986 56.1215 22.1534C56.1195 23.8293 56.1199 25.5052 56.1219 27.1812C56.1242 29.1291 56.1251 31.0771 56.1238 33.0251C56.1236 33.233 56.1235 33.4409 56.1234 33.6487C56.1233 33.8021 56.1233 33.8021 56.1232 33.9586C56.1228 34.678 56.1234 35.3973 56.1245 36.1166C56.1257 36.9937 56.1253 37.8708 56.123 38.7479C56.1219 39.1951 56.1214 39.6422 56.1229 40.0894C56.1242 40.4994 56.1234 40.9093 56.1211 41.3192C56.1204 41.5365 56.1218 41.7538 56.1233 41.971C56.111 43.3852 55.6824 44.4356 54.7523 45.5003C53.915 46.2956 52.8446 46.8325 51.687 46.8198C51.552 46.8187 51.4169 46.8175 51.2777 46.8163C51.2051 46.8155 51.1324 46.8146 51.0576 46.8137C50.7421 46.8099 50.4266 46.8074 50.111 46.8047C49.9411 46.8033 49.7712 46.8018 49.6013 46.8002C48.5101 46.7903 47.4188 46.7883 46.3275 46.7859C45.2654 46.7834 44.2034 46.7786 43.1414 46.7659C42.2972 46.7559 41.4532 46.7514 40.609 46.7531C40.1626 46.7539 39.7166 46.7519 39.2703 46.7434C37.3621 46.6065 37.3621 46.6065 35.6799 47.2577C35.3548 47.6223 35.1587 48.0116 34.9555 48.4534C34.7477 48.7292 34.7477 48.7292 34.5692 48.9319C34.5152 48.9981 34.4611 49.0642 34.4054 49.1323C34.3523 49.197 34.2992 49.2618 34.2445 49.3284C33.8014 49.8711 33.3632 50.4169 32.932 50.9691C32.4424 51.5961 31.9429 52.2144 31.4392 52.8301C31.1462 53.1889 30.8566 53.5495 30.574 53.9166C30.4943 54.0199 30.4943 54.0199 30.413 54.1253C30.3142 54.2539 30.216 54.3829 30.1186 54.5124C29.7547 54.9856 29.3668 55.4692 28.7766 55.6431C28.2709 55.6464 27.9244 55.599 27.5248 55.2757C27.0371 54.7889 26.622 54.2368 26.2042 53.6902C25.8671 53.2497 25.5177 52.8201 25.1664 52.3909C24.6734 51.7871 24.1878 51.1782 23.7082 50.5636C23.2676 50.0004 22.8165 49.4459 22.3613 48.8943C22.3065 48.8275 22.2518 48.7607 22.1953 48.6918C22.1403 48.6262 22.0852 48.5605 22.0285 48.4928C21.8304 48.2347 21.8304 48.2347 21.635 47.9083C21.1994 47.2088 21.1994 47.2088 20.5015 46.8024C20.087 46.7596 19.683 46.7573 19.2675 46.7701C19.1098 46.7701 18.9521 46.7695 18.7944 46.7684C18.4564 46.7673 18.1188 46.7702 17.7809 46.7765C17.2457 46.7865 16.7106 46.7872 16.1753 46.7869C15.328 46.7874 14.4808 46.7942 13.6336 46.8037C12.118 46.8203 10.6024 46.8264 9.08671 46.83C8.55564 46.8315 8.0247 46.8358 7.49368 46.8424C7.16213 46.8462 6.83058 46.8483 6.49902 46.8499C6.34642 46.8511 6.19383 46.853 6.04126 46.8558C4.52927 46.8826 3.38557 46.5237 2.25232 45.5003C1.17822 44.3109 0.873409 43.1213 0.883527 41.5472C0.882944 41.3937 0.88217 41.2403 0.881225 41.0869C0.879199 40.6684 0.879873 40.2499 0.881023 39.8313C0.881791 39.3787 0.880036 38.9262 0.878617 38.4736C0.876255 37.5881 0.876263 36.7027 0.877154 35.8172C0.877845 35.0972 0.877718 34.3772 0.877015 33.6572C0.876917 33.5546 0.876818 33.452 0.876716 33.3462C0.876514 33.1377 0.87631 32.9292 0.876105 32.7206C0.874294 30.7669 0.875244 28.8131 0.877088 26.8594C0.878695 25.0738 0.877096 23.2883 0.873941 21.5027C0.870723 19.6672 0.869527 17.8316 0.87057 15.9961C0.870682 15.7882 0.870791 15.5804 0.870897 15.3726C0.870949 15.2704 0.871001 15.1681 0.871055 15.0628C0.871291 14.3442 0.870221 13.6257 0.868625 12.9071C0.866704 12.0305 0.866727 11.154 0.86921 10.2775C0.870425 9.83074 0.870783 9.38402 0.86874 8.93725C0.86689 8.52742 0.867612 8.11767 0.870295 7.70785C0.871075 7.49116 0.869195 7.27447 0.867188 7.05779C0.882001 5.62265 1.33746 4.41156 2.36169 3.39092C3.64876 2.27916 4.9675 2.12301 6.60408 2.1315ZM4.22107 5.46905C3.68375 6.14869 3.55138 6.7632 3.55075 7.62521C3.5504 7.7479 3.55004 7.87058 3.54968 7.99698C3.54985 8.13066 3.55002 8.26433 3.55019 8.40206C3.54995 8.54493 3.5497 8.6878 3.54944 8.83499C3.54878 9.23088 3.54879 9.62676 3.54892 10.0226C3.54894 10.4499 3.54834 10.8771 3.54782 11.3043C3.54691 12.141 3.54661 12.9777 3.54655 13.8145C3.5465 14.4946 3.54627 15.1747 3.54592 15.8549C3.54496 17.7834 3.54446 19.7119 3.54454 21.6404C3.54454 21.7443 3.54455 21.8483 3.54455 21.9554C3.54456 22.0594 3.54456 22.1635 3.54457 22.2707C3.54461 23.9576 3.54356 25.6446 3.54202 27.3315C3.54045 29.0638 3.53969 30.7962 3.53979 32.5285C3.53983 33.501 3.53952 34.4735 3.53835 35.446C3.53735 36.2739 3.53711 37.1018 3.53786 37.9297C3.53821 38.3521 3.53822 38.7744 3.53727 39.1967C3.53625 39.6547 3.53693 40.1127 3.53778 40.5708C3.53721 40.7039 3.53665 40.8371 3.53607 40.9744C3.53996 41.9278 3.57921 42.7715 4.22107 43.5316C4.92396 44.0873 5.55506 44.2018 6.44478 44.2007C6.5817 44.2008 6.71862 44.2009 6.85969 44.2011C7.01002 44.2007 7.16034 44.2003 7.31067 44.1998C7.47009 44.1998 7.6295 44.1998 7.78891 44.1999C8.13141 44.2001 8.47392 44.1999 8.81642 44.1996C9.35837 44.1992 9.90031 44.2002 10.4423 44.2015C10.5338 44.2017 10.6254 44.202 10.7198 44.2022C10.907 44.2026 11.0943 44.2031 11.2815 44.2036C12.5426 44.2066 13.8036 44.2088 15.0647 44.2069C15.9163 44.2057 16.7679 44.2067 17.6195 44.2105C18.0697 44.2123 18.5199 44.213 18.9702 44.2109C19.3937 44.2089 19.8171 44.2099 20.2406 44.2133C20.3957 44.214 20.5507 44.2136 20.7058 44.212C22.0215 44.1991 22.0215 44.1991 22.5123 44.6094C22.6745 44.7798 22.6745 44.7798 22.8148 44.9534C22.8658 45.0126 22.9168 45.0718 22.9693 45.1327C23.1113 45.301 23.2435 45.4744 23.3754 45.6507C23.4792 45.7861 23.5832 45.9214 23.6873 46.0566C23.741 46.1266 23.7948 46.1966 23.8501 46.2688C24.1368 46.6375 24.4331 46.9983 24.7289 47.3597C25.2213 47.9629 25.7064 48.5712 26.1856 49.185C26.6466 49.774 27.1182 50.3542 27.5916 50.9332C27.8656 51.2686 28.1373 51.6037 28.3929 51.9534C28.8543 51.7851 29.0866 51.4442 29.3705 51.0648C29.4773 50.9254 29.5843 50.7861 29.6914 50.6469C29.7472 50.5741 29.803 50.5013 29.8605 50.4263C30.1487 50.0551 30.4468 49.6921 30.7445 49.3284C31.1875 48.7857 31.6258 48.24 32.057 47.6878C32.5004 47.1204 32.9498 46.5583 33.4037 45.9993C33.4902 45.8926 33.4902 45.8926 33.5784 45.7838C33.8621 45.4352 34.148 45.0885 34.4372 44.7445C34.4895 44.6822 34.5417 44.6198 34.5956 44.5556C34.8053 44.3341 34.9288 44.2986 35.2344 44.2826C35.3533 44.2822 35.4721 44.2818 35.5946 44.2813C35.7307 44.2806 35.8669 44.2798 36.0072 44.2791C36.1589 44.2788 36.3107 44.2785 36.4624 44.2782C36.6216 44.2775 36.7807 44.2768 36.9399 44.276C37.2833 44.2744 37.6266 44.2731 37.97 44.272C38.5133 44.2704 39.0566 44.2677 39.5999 44.2649C41.1451 44.2572 42.6903 44.2506 44.2356 44.245C45.0885 44.2419 45.9415 44.2381 46.7945 44.2334C47.3341 44.2304 47.8737 44.2285 48.4133 44.2272C48.75 44.2262 49.0867 44.2243 49.4234 44.2222C49.5789 44.2214 49.7344 44.2209 49.89 44.2209C51.4415 44.2345 51.4415 44.2345 52.7836 43.5316C53.3209 42.8519 53.4533 42.2374 53.4539 41.3754C53.4543 41.2527 53.4546 41.13 53.455 41.0036C53.4548 40.8699 53.4546 40.7363 53.4545 40.5985C53.4547 40.4557 53.4549 40.3128 53.4552 40.1656C53.4559 39.7697 53.4559 39.3738 53.4557 38.978C53.4557 38.5507 53.4563 38.1235 53.4568 37.6963C53.4577 36.8596 53.458 36.0228 53.4581 35.1861C53.4582 34.506 53.4584 33.8259 53.4587 33.1457C53.4597 31.2172 53.4602 29.2887 53.4601 27.3602C53.4601 27.2563 53.4601 27.1523 53.4601 27.0452C53.4601 26.9412 53.4601 26.8371 53.4601 26.7299C53.46 25.0429 53.4611 23.356 53.4626 21.6691C53.4642 19.9368 53.465 18.2044 53.4649 16.4721C53.4648 15.4996 53.4651 14.5271 53.4663 13.5546C53.4673 12.7267 53.4675 11.8988 53.4668 11.0709C53.4664 10.6485 53.4664 10.2262 53.4674 9.80391C53.4684 9.34588 53.4677 8.88787 53.4669 8.42984C53.4677 8.23006 53.4677 8.23006 53.4686 8.02624C53.4647 7.07275 53.4254 6.22914 52.7836 5.46905C52.0485 4.88791 51.3917 4.79925 50.4634 4.79873C50.3861 4.79853 50.3088 4.79834 50.2291 4.79814C49.9701 4.79764 49.711 4.7979 49.4519 4.79817C49.2643 4.79797 49.0767 4.79771 48.8891 4.79742C48.3735 4.79675 47.8579 4.79676 47.3423 4.79689C46.7862 4.79692 46.2302 4.79631 45.6741 4.79579C44.5847 4.79489 43.4953 4.79458 42.4059 4.79452C41.5206 4.79447 40.6352 4.79425 39.7499 4.7939C37.2403 4.79294 34.7308 4.79243 32.2212 4.79251C32.0182 4.79252 32.0182 4.79252 31.8112 4.79253C31.6757 4.79253 31.5402 4.79254 31.4007 4.79254C29.2045 4.79259 27.0083 4.79154 24.8122 4.79C22.5578 4.78843 20.3034 4.78767 18.049 4.78777C16.783 4.7878 15.5171 4.7875 14.2512 4.78632C13.1735 4.78533 12.0958 4.78509 11.0181 4.78583C10.4682 4.78619 9.91829 4.78619 9.36837 4.78525C8.86494 4.78439 8.36152 4.78454 7.85808 4.7855C7.67599 4.78567 7.4939 4.78546 7.31181 4.78486C7.06411 4.78408 6.81644 4.78466 6.56874 4.78557C6.36245 4.78554 6.36245 4.78554 6.15199 4.7855C5.42198 4.83535 4.79156 4.98729 4.22107 5.46905Z" fill="#77C49A"/>
<path d="M6.60408 2.1315C6.80081 2.13092 6.99754 2.13015 7.19426 2.1292C7.73252 2.12717 8.27075 2.12785 8.80901 2.129C9.39042 2.12977 9.97182 2.12801 10.5532 2.12659C11.6914 2.12423 12.8295 2.12424 13.9676 2.12513C14.8928 2.12582 15.818 2.12569 16.7433 2.12499C16.8751 2.12489 17.0068 2.12479 17.1426 2.12469C17.4103 2.12449 17.678 2.12429 17.9458 2.12408C20.4553 2.12227 22.9649 2.12322 25.4745 2.12506C27.7693 2.12667 30.0641 2.12507 32.3588 2.12192C34.7165 2.1187 37.0741 2.1175 39.4317 2.11855C39.6985 2.11866 39.9653 2.11877 40.2321 2.11887C40.429 2.11895 40.429 2.11895 40.6298 2.11903C41.5536 2.11927 42.4773 2.1182 43.401 2.1166C44.5273 2.11468 45.6536 2.1147 46.7799 2.11719C47.3543 2.1184 47.9286 2.11875 48.5029 2.11672C49.0293 2.11487 49.5557 2.11558 50.0821 2.11827C50.2719 2.1188 50.4617 2.11843 50.6515 2.11701C52.168 2.10656 53.4302 2.33555 54.619 3.36614C55.6521 4.40281 56.1107 5.5746 56.1233 7.02955C56.1224 7.16992 56.1214 7.31029 56.1204 7.45491C56.1209 7.60848 56.1216 7.76206 56.1225 7.91563C56.1243 8.3346 56.1234 8.75352 56.122 9.17249C56.121 9.62551 56.1226 10.0785 56.1238 10.5315C56.1257 11.4178 56.1253 12.304 56.124 13.1903C56.123 13.9108 56.1229 14.6313 56.1234 15.3519C56.1234 15.4546 56.1235 15.5573 56.1236 15.6631C56.1237 15.8717 56.1239 16.0804 56.124 16.289C56.1253 18.2438 56.1238 20.1986 56.1215 22.1534C56.1195 23.8293 56.1199 25.5052 56.1219 27.1812C56.1242 29.1291 56.1251 31.0771 56.1238 33.0251C56.1236 33.233 56.1235 33.4409 56.1234 33.6487C56.1233 33.8021 56.1233 33.8021 56.1232 33.9586C56.1228 34.678 56.1234 35.3973 56.1245 36.1166C56.1257 36.9937 56.1253 37.8708 56.123 38.7479C56.1219 39.1951 56.1214 39.6422 56.1229 40.0894C56.1242 40.4994 56.1234 40.9093 56.1211 41.3192C56.1204 41.5365 56.1218 41.7538 56.1233 41.971C56.111 43.3852 55.6824 44.4356 54.7523 45.5003C53.915 46.2956 52.8446 46.8325 51.687 46.8198C51.552 46.8187 51.4169 46.8175 51.2777 46.8163C51.2051 46.8155 51.1324 46.8146 51.0576 46.8137C50.7421 46.8099 50.4266 46.8074 50.111 46.8047C49.9411 46.8033 49.7712 46.8018 49.6013 46.8002C48.5101 46.7903 47.4188 46.7883 46.3275 46.7859C45.2654 46.7834 44.2034 46.7786 43.1414 46.7659C42.2972 46.7559 41.4532 46.7514 40.609 46.7531C40.1626 46.7539 39.7166 46.7519 39.2703 46.7434C37.3621 46.6065 37.3621 46.6065 35.6799 47.2577C35.3548 47.6223 35.1587 48.0116 34.9555 48.4534C34.7477 48.7292 34.7477 48.7292 34.5692 48.9319C34.5152 48.9981 34.4611 49.0642 34.4054 49.1323C34.3523 49.197 34.2992 49.2618 34.2445 49.3284C33.8014 49.8711 33.3632 50.4169 32.932 50.9691C32.4424 51.5961 31.9429 52.2144 31.4392 52.8301C31.1462 53.1889 30.8566 53.5495 30.574 53.9166C30.4943 54.0199 30.4943 54.0199 30.413 54.1253C30.3142 54.2539 30.216 54.3829 30.1186 54.5124C29.7547 54.9856 29.3668 55.4692 28.7766 55.6431C28.2709 55.6464 27.9244 55.599 27.5248 55.2757C27.0371 54.7889 26.622 54.2368 26.2042 53.6902C25.8671 53.2497 25.5177 52.8201 25.1664 52.3909C24.6734 51.7871 24.1878 51.1782 23.7082 50.5636C23.2676 50.0004 22.8165 49.4459 22.3613 48.8943C22.3065 48.8275 22.2518 48.7607 22.1953 48.6918C22.1403 48.6262 22.0852 48.5605 22.0285 48.4928C21.8304 48.2347 21.8304 48.2347 21.635 47.9083C21.1994 47.2088 21.1994 47.2088 20.5015 46.8024C20.087 46.7596 19.683 46.7573 19.2675 46.7701C19.1098 46.7701 18.9521 46.7695 18.7944 46.7684C18.4564 46.7673 18.1188 46.7702 17.7809 46.7765C17.2457 46.7865 16.7106 46.7872 16.1753 46.7869C15.328 46.7874 14.4808 46.7942 13.6336 46.8037C12.118 46.8203 10.6024 46.8264 9.08671 46.83C8.55564 46.8315 8.0247 46.8358 7.49368 46.8424C7.16213 46.8462 6.83058 46.8483 6.49902 46.8499C6.34642 46.8511 6.19383 46.853 6.04126 46.8558C4.52927 46.8826 3.38557 46.5237 2.25232 45.5003C1.17822 44.3109 0.873409 43.1213 0.883527 41.5472C0.882944 41.3937 0.88217 41.2403 0.881225 41.0869C0.879199 40.6684 0.879873 40.2499 0.881023 39.8313C0.881791 39.3787 0.880036 38.9262 0.878617 38.4736C0.876255 37.5881 0.876263 36.7027 0.877154 35.8172C0.877845 35.0972 0.877718 34.3772 0.877015 33.6572C0.876917 33.5546 0.876818 33.452 0.876716 33.3462C0.876514 33.1377 0.87631 32.9292 0.876105 32.7206C0.874294 30.7669 0.875244 28.8131 0.877088 26.8594C0.878695 25.0738 0.877096 23.2883 0.873941 21.5027C0.870723 19.6672 0.869527 17.8316 0.87057 15.9961C0.870682 15.7882 0.870791 15.5804 0.870897 15.3726C0.870949 15.2704 0.871001 15.1681 0.871055 15.0628C0.871291 14.3442 0.870221 13.6257 0.868625 12.9071C0.866704 12.0305 0.866727 11.154 0.86921 10.2775C0.870425 9.83074 0.870783 9.38402 0.86874 8.93725C0.86689 8.52742 0.867612 8.11767 0.870295 7.70785C0.871075 7.49116 0.869195 7.27447 0.867188 7.05779C0.882001 5.62265 1.33746 4.41156 2.36169 3.39092C3.64876 2.27916 4.9675 2.12301 6.60408 2.1315ZM4.22107 5.46905C3.68375 6.14869 3.55138 6.7632 3.55075 7.62521C3.5504 7.7479 3.55004 7.87058 3.54968 7.99698C3.54985 8.13066 3.55002 8.26433 3.55019 8.40206C3.54995 8.54493 3.5497 8.6878 3.54944 8.83499C3.54878 9.23088 3.54879 9.62676 3.54892 10.0226C3.54894 10.4499 3.54834 10.8771 3.54782 11.3043C3.54691 12.141 3.54661 12.9777 3.54655 13.8145C3.5465 14.4946 3.54627 15.1747 3.54592 15.8549C3.54496 17.7834 3.54446 19.7119 3.54454 21.6404C3.54454 21.7443 3.54455 21.8483 3.54455 21.9554C3.54456 22.0594 3.54456 22.1635 3.54457 22.2707C3.54461 23.9576 3.54356 25.6446 3.54202 27.3315C3.54045 29.0638 3.53969 30.7962 3.53979 32.5285C3.53983 33.501 3.53952 34.4735 3.53835 35.446C3.53735 36.2739 3.53711 37.1018 3.53786 37.9297C3.53821 38.3521 3.53822 38.7744 3.53727 39.1967C3.53625 39.6547 3.53693 40.1127 3.53778 40.5708C3.53721 40.7039 3.53665 40.8371 3.53607 40.9744C3.53996 41.9278 3.57921 42.7715 4.22107 43.5316C4.92396 44.0873 5.55506 44.2018 6.44478 44.2007C6.5817 44.2008 6.71862 44.2009 6.85969 44.2011C7.01002 44.2007 7.16034 44.2003 7.31067 44.1998C7.47009 44.1998 7.6295 44.1998 7.78891 44.1999C8.13141 44.2001 8.47392 44.1999 8.81642 44.1996C9.35837 44.1992 9.90031 44.2002 10.4423 44.2015C10.5338 44.2017 10.6254 44.202 10.7198 44.2022C10.907 44.2026 11.0943 44.2031 11.2815 44.2036C12.5426 44.2066 13.8036 44.2088 15.0647 44.2069C15.9163 44.2057 16.7679 44.2067 17.6195 44.2105C18.0697 44.2123 18.5199 44.213 18.9702 44.2109C19.3937 44.2089 19.8171 44.2099 20.2406 44.2133C20.3957 44.214 20.5507 44.2136 20.7058 44.212C22.0215 44.1991 22.0215 44.1991 22.5123 44.6094C22.6745 44.7798 22.6745 44.7798 22.8148 44.9534C22.8658 45.0126 22.9168 45.0718 22.9693 45.1327C23.1113 45.301 23.2435 45.4744 23.3754 45.6507C23.4792 45.7861 23.5832 45.9214 23.6873 46.0566C23.741 46.1266 23.7948 46.1966 23.8501 46.2688C24.1368 46.6375 24.4331 46.9983 24.7289 47.3597C25.2213 47.9629 25.7064 48.5712 26.1856 49.185C26.6466 49.774 27.1182 50.3542 27.5916 50.9332C27.8656 51.2686 28.1373 51.6037 28.3929 51.9534C28.8543 51.7851 29.0866 51.4442 29.3705 51.0648C29.4773 50.9254 29.5843 50.7861 29.6914 50.6469C29.7472 50.5741 29.803 50.5013 29.8605 50.4263C30.1487 50.0551 30.4468 49.6921 30.7445 49.3284C31.1875 48.7857 31.6258 48.24 32.057 47.6878C32.5004 47.1204 32.9498 46.5583 33.4037 45.9993C33.4902 45.8926 33.4902 45.8926 33.5784 45.7838C33.8621 45.4352 34.148 45.0885 34.4372 44.7445C34.4895 44.6822 34.5417 44.6198 34.5956 44.5556C34.8053 44.3341 34.9288 44.2986 35.2344 44.2826C35.3533 44.2822 35.4721 44.2818 35.5946 44.2813C35.7307 44.2806 35.8669 44.2798 36.0072 44.2791C36.1589 44.2788 36.3107 44.2785 36.4624 44.2782C36.6216 44.2775 36.7807 44.2768 36.9399 44.276C37.2833 44.2744 37.6266 44.2731 37.97 44.272C38.5133 44.2704 39.0566 44.2677 39.5999 44.2649C41.1451 44.2572 42.6903 44.2506 44.2356 44.245C45.0885 44.2419 45.9415 44.2381 46.7945 44.2334C47.3341 44.2304 47.8737 44.2285 48.4133 44.2272C48.75 44.2262 49.0867 44.2243 49.4234 44.2222C49.5789 44.2214 49.7344 44.2209 49.89 44.2209C51.4415 44.2345 51.4415 44.2345 52.7836 43.5316C53.3209 42.8519 53.4533 42.2374 53.4539 41.3754C53.4543 41.2527 53.4546 41.13 53.455 41.0036C53.4548 40.8699 53.4546 40.7363 53.4545 40.5985C53.4547 40.4557 53.4549 40.3128 53.4552 40.1656C53.4559 39.7697 53.4559 39.3738 53.4557 38.978C53.4557 38.5507 53.4563 38.1235 53.4568 37.6963C53.4577 36.8596 53.458 36.0228 53.4581 35.1861C53.4582 34.506 53.4584 33.8259 53.4587 33.1457C53.4597 31.2172 53.4602 29.2887 53.4601 27.3602C53.4601 27.2563 53.4601 27.1523 53.4601 27.0452C53.4601 26.9412 53.4601 26.8371 53.4601 26.7299C53.46 25.0429 53.4611 23.356 53.4626 21.6691C53.4642 19.9368 53.465 18.2044 53.4649 16.4721C53.4648 15.4996 53.4651 14.5271 53.4663 13.5546C53.4673 12.7267 53.4675 11.8988 53.4668 11.0709C53.4664 10.6485 53.4664 10.2262 53.4674 9.80391C53.4684 9.34588 53.4677 8.88787 53.4669 8.42984C53.4677 8.23006 53.4677 8.23006 53.4686 8.02624C53.4647 7.07275 53.4254 6.22914 52.7836 5.46905C52.0485 4.88791 51.3917 4.79925 50.4634 4.79873C50.3861 4.79853 50.3088 4.79834 50.2291 4.79814C49.9701 4.79764 49.711 4.7979 49.4519 4.79817C49.2643 4.79797 49.0767 4.79771 48.8891 4.79742C48.3735 4.79675 47.8579 4.79676 47.3423 4.79689C46.7862 4.79692 46.2302 4.79631 45.6741 4.79579C44.5847 4.79489 43.4953 4.79458 42.4059 4.79452C41.5206 4.79447 40.6352 4.79425 39.7499 4.7939C37.2403 4.79294 34.7308 4.79243 32.2212 4.79251C32.0182 4.79252 32.0182 4.79252 31.8112 4.79253C31.6757 4.79253 31.5402 4.79254 31.4007 4.79254C29.2045 4.79259 27.0083 4.79154 24.8122 4.79C22.5578 4.78843 20.3034 4.78767 18.049 4.78777C16.783 4.7878 15.5171 4.7875 14.2512 4.78632C13.1735 4.78533 12.0958 4.78509 11.0181 4.78583C10.4682 4.78619 9.91829 4.78619 9.36837 4.78525C8.86494 4.78439 8.36152 4.78454 7.85808 4.7855C7.67599 4.78567 7.4939 4.78546 7.31181 4.78486C7.06411 4.78408 6.81644 4.78466 6.56874 4.78557C6.36245 4.78554 6.36245 4.78554 6.15199 4.7855C5.42198 4.83535 4.79156 4.98729 4.22107 5.46905Z" fill="#77C49A"/>
<path d="M33.9077 11.7916C35.4124 13.0507 36.5614 14.9969 36.813 16.9535C37.0088 19.3643 36.6588 21.6934 35.0621 23.6023C34.9902 23.6822 34.9183 23.762 34.8442 23.8442C34.7565 23.942 34.6688 24.0399 34.5785 24.1407C33.6206 25.1541 32.549 25.7872 31.2763 26.3448C30.7535 26.5946 30.4412 26.8646 30.1616 27.3852C29.9611 27.9974 29.917 28.5606 29.907 29.201C29.9038 29.3786 29.9038 29.3786 29.9006 29.5599C29.8968 29.8062 29.8949 30.0526 29.8946 30.299C29.8742 31.1977 29.8742 31.1977 29.5618 31.626C29.0205 31.9968 28.7355 32.0928 28.0839 32.0059C27.7171 31.9019 27.5304 31.6824 27.2973 31.391C27.2613 31.355 27.2252 31.3189 27.188 31.2817C27.1728 31.0054 27.1647 30.7323 27.1619 30.4558C27.161 30.3717 27.1601 30.2875 27.1592 30.2009C27.1577 30.0217 27.1565 29.8424 27.1557 29.6632C27.1538 29.3934 27.149 29.1237 27.1442 28.8538C27.1276 27.1872 27.4861 25.9935 28.5863 24.7102C29.1199 24.1724 29.72 23.8847 30.4009 23.5776C31.9162 22.892 32.9821 22.0134 33.6787 20.4523C34.233 18.9378 34.1943 17.2914 33.5112 15.8188C32.6457 14.2861 31.4884 13.4212 29.813 12.9067C28.2991 12.5992 26.7458 12.8304 25.438 13.6723C23.9673 14.8135 23.2194 16.0896 22.9702 17.9311C22.9603 18.0204 22.9504 18.1098 22.9402 18.2019C22.8728 18.747 22.7791 19.0664 22.3755 19.4692C22.0425 19.7189 21.6967 19.7334 21.2851 19.7234C20.9191 19.665 20.6864 19.4835 20.4067 19.2504C19.9411 18.5519 20.1079 17.3223 20.2593 16.5126C20.6149 15.0599 21.2624 13.8007 22.2661 12.6879C22.3308 12.6131 22.3955 12.5382 22.4622 12.4611C25.4607 9.2068 30.501 9.26925 33.9077 11.7916Z" fill="#77C49A"/>
<path d="M28.9375 34.5629C29.3479 34.7833 29.554 34.9407 29.8125 35.3285C29.8985 35.9132 29.9225 36.3819 29.5664 36.8666C29.0332 37.2423 28.7294 37.342 28.0834 37.2558C27.7166 37.1518 27.53 36.9324 27.2969 36.641C27.2608 36.6049 27.2247 36.5688 27.1875 36.5316C27.1304 35.9733 27.0963 35.488 27.3789 34.9935C27.8651 34.5749 28.2907 34.4596 28.9375 34.5629Z" fill="#77C49A"/>
</g>
<defs>
<clipPath id="clip0_314_2147">
<rect width="56" height="56" fill="white" transform="translate(0.5)"/>
</clipPath>
</defs>
</svg>
