<svg width="698" height="182" viewBox="0 0 698 182" fill="none" xmlns="http://www.w3.org/2000/svg">
<path d="M121.508 181.748V0L141.76 6.853V181.748H121.508ZM0 181.748L0 6.853L20.2514 0V181.748H0ZM9.86607 101V81.2671H130.076V101H9.86607Z" fill="#87CDA7"/>
<path d="M223.597 181.747C211.827 181.747 201.182 178.718 191.662 172.659C182.142 166.428 174.613 158.033 169.074 147.474C163.535 136.743 160.766 124.626 160.766 111.125C160.766 97.4506 163.622 85.3341 169.334 74.7755C175.045 64.2168 182.661 55.9083 192.181 49.8501C201.874 43.7918 212.692 40.7627 224.635 40.7627C231.732 40.7627 238.309 41.8013 244.368 43.8784C250.426 45.9555 255.791 48.8981 260.465 52.7061C265.311 56.3411 269.292 60.6684 272.408 65.6881C275.697 70.5347 277.947 75.814 279.158 81.5261L273.446 78.67L274.225 43.6187H293.698V179.15H273.966V145.917L279.158 142.541C277.947 147.734 275.61 152.754 272.148 157.6C268.687 162.274 264.446 166.428 259.426 170.063C254.58 173.698 249.041 176.554 242.81 178.631C236.752 180.708 230.347 181.747 223.597 181.747ZM228.011 163.053C237.011 163.053 245.06 160.889 252.157 156.562C259.253 152.061 264.792 145.917 268.773 138.127C272.927 130.165 275.004 121.164 275.004 111.125C275.004 101.086 272.927 92.1713 268.773 84.3821C264.792 76.5929 259.253 70.4481 252.157 65.9477C245.06 61.4473 237.011 59.1971 228.011 59.1971C218.837 59.1971 210.702 61.4473 203.605 65.9477C196.682 70.4481 191.143 76.5929 186.989 84.3821C183.008 92.1713 181.017 101.086 181.017 111.125C181.017 120.991 183.008 129.906 186.989 137.868C190.97 145.657 196.508 151.802 203.605 156.302C210.702 160.803 218.837 163.053 228.011 163.053Z" fill="#87CDA7"/>
<path d="M367.893 181.745L310.773 46.2129H332.323L377.499 157.079L372.307 159.935L421.896 46.2129H442.667L381.913 181.745H367.893Z" fill="#87CDA7"/>
<path d="M511.041 181.748C497.54 181.748 485.51 178.805 474.952 172.92C464.566 167.035 456.431 158.813 450.546 148.254C444.661 137.696 441.719 125.579 441.719 111.905C441.719 101.346 443.363 91.8259 446.652 83.3444C449.941 74.6898 454.527 67.1602 460.412 60.7558C466.47 54.3513 473.654 49.4182 481.962 45.9563C490.27 42.3214 499.271 40.5039 508.964 40.5039C518.138 40.5039 526.446 42.1483 533.889 45.437C541.505 48.7258 547.995 53.3128 553.361 59.1979C558.9 64.91 563.054 71.7472 565.823 79.7095C568.593 87.6717 569.805 96.4129 569.458 105.933L569.199 115.02H456.258L453.402 98.6631H554.4L549.726 103.077V96.8456C549.38 90.6143 547.563 84.6426 544.274 78.9305C540.985 73.0454 536.312 68.2853 530.254 64.6504C524.369 61.0154 517.272 59.1979 508.964 59.1979C499.271 59.1979 490.876 61.1885 483.779 65.1696C476.683 68.9777 471.23 74.6897 467.422 82.3058C463.615 89.9219 461.711 99.3555 461.711 110.607C461.711 121.338 463.788 130.685 467.942 138.648C472.096 146.437 477.981 152.495 485.597 156.822C493.386 161.15 502.733 163.313 513.637 163.313C520.041 163.313 526.359 162.275 532.59 160.198C538.995 157.947 546.005 153.62 553.621 147.216L563.746 161.236C559.765 165.217 555.005 168.766 549.467 171.881C543.928 174.824 537.87 177.247 531.292 179.151C524.715 180.882 517.964 181.748 511.041 181.748Z" fill="#87CDA7"/>
<path d="M585.578 181.747V46.2154H604.791L605.57 74.5161L602.454 75.8143C604.185 69.9291 607.56 64.5632 612.58 59.7166C617.6 54.87 623.571 50.9755 630.495 48.0329C637.591 44.9172 644.861 43.3594 652.304 43.3594C662.343 43.3594 670.738 45.3499 677.488 49.3311C684.239 53.3122 689.345 59.457 692.807 67.7655C696.269 76.0739 697.999 86.6326 697.999 99.4415V181.747H678.267V100.48C678.267 91.4792 677.056 84.1228 674.632 78.4107C672.382 72.5255 668.834 68.1982 663.987 65.4287C659.141 62.6592 653.169 61.361 646.073 61.5341C640.188 61.5341 634.735 62.5727 629.716 64.6498C624.696 66.5538 620.369 69.2368 616.734 72.6986C613.099 76.1605 610.243 80.1416 608.166 84.642C606.089 89.1424 605.051 93.989 605.051 99.1818V181.747H595.444C594.233 181.747 592.848 181.747 591.29 181.747C589.732 181.747 587.828 181.747 585.578 181.747Z" fill="#87CDA7"/>
</svg>
