<svg width="99" height="25" viewBox="0 0 99 25" fill="none" xmlns="http://www.w3.org/2000/svg">
<path d="M16.5457 24.4999V0.5L19.2199 1.40495V24.4999H16.5457ZM0.5 24.4999V1.40495L3.17428 0.5V24.4999H0.5ZM1.80285 13.8371V11.2314H17.6771V13.8371H1.80285Z" fill="#87CDA7"/>
<path d="M30.5549 24.4999C29.0006 24.4999 27.5949 24.0999 26.3378 23.2999C25.0807 22.4771 24.0864 21.3685 23.355 19.9742C22.6235 18.5571 22.2578 16.9571 22.2578 15.1742C22.2578 13.3685 22.635 11.7685 23.3892 10.3742C24.1435 8.97995 25.1492 7.88281 26.4064 7.08281C27.6864 6.28281 29.1149 5.88281 30.6921 5.88281C31.6292 5.88281 32.4978 6.01996 33.2978 6.29424C34.0978 6.56853 34.8063 6.9571 35.4235 7.45995C36.0635 7.93995 36.5892 8.51138 37.0006 9.17423C37.4349 9.81423 37.7321 10.5114 37.8921 11.2657L37.1378 10.8885L37.2406 6.25996H39.812V24.157H37.2063V19.7685L37.8921 19.3228C37.7321 20.0085 37.4235 20.6713 36.9663 21.3113C36.5092 21.9285 35.9492 22.4771 35.2863 22.9571C34.6463 23.4371 33.9149 23.8142 33.0921 24.0885C32.2921 24.3628 31.4464 24.4999 30.5549 24.4999ZM31.1378 22.0313C32.3264 22.0313 33.3892 21.7456 34.3263 21.1742C35.2635 20.5799 35.9949 19.7685 36.5206 18.7399C37.0692 17.6885 37.3435 16.4999 37.3435 15.1742C37.3435 13.8485 37.0692 12.6714 36.5206 11.6428C35.9949 10.6142 35.2635 9.8028 34.3263 9.20852C33.3892 8.61423 32.3264 8.31709 31.1378 8.31709C29.9264 8.31709 28.8521 8.61423 27.9149 9.20852C27.0007 9.8028 26.2692 10.6142 25.7207 11.6428C25.1949 12.6714 24.9321 13.8485 24.9321 15.1742C24.9321 16.4771 25.1949 17.6542 25.7207 18.7056C26.2464 19.7342 26.9778 20.5456 27.9149 21.1399C28.8521 21.7342 29.9264 22.0313 31.1378 22.0313Z" fill="#87CDA7"/>
<path d="M50.4022 24.4996L42.8594 6.60254H45.7051L51.6708 21.2425L50.9851 21.6196L57.5336 6.60254H60.2765L52.2536 24.4996H50.4022Z" fill="#87CDA7"/>
<path d="M72.4746 24.5C70.6917 24.5 69.1032 24.1114 67.7089 23.3343C66.3374 22.5572 65.2632 21.4714 64.486 20.0772C63.7089 18.6829 63.3203 17.0829 63.3203 15.2772C63.3203 13.8829 63.5375 12.6258 63.9717 11.5058C64.406 10.3629 65.0117 9.36862 65.7889 8.52291C66.5889 7.6772 67.5374 7.02577 68.6346 6.56863C69.7317 6.08863 70.9203 5.84863 72.2003 5.84863C73.4117 5.84863 74.5089 6.06577 75.4917 6.50006C76.4974 6.93434 77.3546 7.54006 78.0631 8.3172C78.7946 9.07148 79.3431 9.97434 79.7088 11.0258C80.0745 12.0772 80.2346 13.2315 80.1888 14.4886L80.1546 15.6886H65.2403L64.8632 13.5286H78.2003L77.5831 14.1115V13.2886C77.5374 12.4658 77.2974 11.6772 76.8631 10.9229C76.4288 10.1458 75.8117 9.51719 75.0117 9.0372C74.2346 8.5572 73.2974 8.3172 72.2003 8.3172C70.9203 8.3172 69.8117 8.58005 68.8746 9.10577C67.9374 9.60862 67.2174 10.3629 66.7146 11.3686C66.2117 12.3743 65.9603 13.62 65.9603 15.1058C65.9603 16.5229 66.2346 17.7572 66.7832 18.8086C67.3317 19.8372 68.1089 20.6372 69.1146 21.2086C70.1431 21.78 71.3774 22.0657 72.8174 22.0657C73.6631 22.0657 74.4974 21.9286 75.3203 21.6543C76.166 21.3572 77.0917 20.7857 78.0974 19.94L79.4346 21.7914C78.9088 22.3172 78.2803 22.7857 77.5488 23.1972C76.8174 23.5857 76.0174 23.9057 75.1489 24.1572C74.2803 24.3857 73.3889 24.5 72.4746 24.5Z" fill="#87CDA7"/>
<path d="M83.2422 24.4998V6.60273H85.7793L85.8822 10.3399L85.4708 10.5113C85.6993 9.73415 86.145 9.02558 86.8079 8.38558C87.4707 7.74558 88.2593 7.2313 89.1736 6.84273C90.1107 6.4313 91.0707 6.22559 92.0536 6.22559C93.3793 6.22559 94.4879 6.48844 95.3793 7.01416C96.2707 7.53987 96.945 8.35129 97.4021 9.44843C97.8593 10.5456 98.0879 11.9399 98.0879 13.6313V24.4998H95.4822V13.7684C95.4822 12.5799 95.3222 11.6084 95.0022 10.8541C94.705 10.077 94.2364 9.50558 93.5964 9.13986C92.9564 8.77415 92.1679 8.60272 91.2307 8.62558C90.4536 8.62558 89.7336 8.76272 89.0707 9.03701C88.4079 9.28843 87.8365 9.64272 87.3565 10.0999C86.8765 10.557 86.4993 11.0827 86.225 11.677C85.9508 12.2713 85.8136 12.9113 85.8136 13.597V24.4998H84.545C84.385 24.4998 84.2022 24.4998 83.9965 24.4998C83.7908 24.4998 83.5393 24.4998 83.2422 24.4998Z" fill="#87CDA7"/>
</svg>
