<svg width="21" height="20" viewBox="0 0 21 20" fill="none" xmlns="http://www.w3.org/2000/svg">
<path d="M2.99219 10.8336V10.0003C2.99219 9.54008 3.36528 9.16699 3.82551 9.16699C4.28575 9.16699 4.65884 9.54008 4.65884 10.0003V10.8336C4.65884 14.0553 7.27052 16.667 10.4922 16.667C13.7139 16.667 16.3255 14.0553 16.3255 10.8336V10.0003C16.3255 9.54008 16.6986 9.167 17.1588 9.16699C17.6191 9.16699 17.9922 9.54008 17.9922 10.0003V10.8336C17.9922 14.9758 14.6343 18.3336 10.4922 18.3336C6.35005 18.3336 2.99219 14.9758 2.99219 10.8336ZM12.9922 5.83364C12.9922 4.45294 11.8729 3.33365 10.4922 3.33364C9.11148 3.33364 7.99219 4.45293 7.99219 5.83364V10.8336C7.99219 12.2143 9.11148 13.3336 10.4922 13.3336C11.8729 13.3336 12.9922 12.2143 12.9922 10.8336V5.83364ZM14.6588 10.8336C14.6588 13.1348 12.7933 15.0003 10.4922 15.0003C8.19099 15.0003 6.32551 13.1348 6.32551 10.8336V5.83364C6.32552 3.53246 8.191 1.66699 10.4922 1.66699C12.7933 1.667 14.6588 3.53246 14.6588 5.83364V10.8336Z" fill="white"/>
</svg>
